<?xml version="1.0" encoding="UTF-8"?>
<svg version="1.1" xmlns="http://www.w3.org/2000/svg" width="346" height="366">
<path d="M0 0 C1.15653076 0.28206299 1.15653076 0.28206299 2.33642578 0.56982422 C40.50419538 10.13650146 74.12971185 34.59778835 94.625 68.25 C102.99658725 82.46171796 108.97295277 96.99959094 113 113 C113.17934082 113.69013184 113.35868164 114.38026367 113.54345703 115.09130859 C119.01672206 137.1637309 118.07838608 164.22959654 112 186 C111.68651611 187.14130371 111.68651611 187.14130371 111.36669922 188.30566406 C106.64399242 204.93949729 99.33889915 221.10827914 89 235 C88.59555664 235.54962402 88.19111328 236.09924805 87.77441406 236.66552734 C63.76838609 269.07998724 28.4639951 291.13489449 -11.63208008 297.12451172 C-52.15000565 302.3159298 -92.33123245 292.734924 -125 268 C-129.46940858 264.48795467 -133.76717311 260.79226736 -138 257 C-138.77859375 256.30648438 -139.5571875 255.61296875 -140.359375 254.8984375 C-152.26562748 243.64398716 -161.79260864 229.65137169 -169 215 C-169.34901367 214.29214355 -169.69802734 213.58428711 -170.05761719 212.85498047 C-186.96934147 177.69885685 -189.28768204 134.96001441 -176.734375 98.04980469 C-168.76401943 75.80276168 -156.23245553 57.05403687 -140 40 C-139.40703125 39.35417969 -138.8140625 38.70835938 -138.203125 38.04296875 C-119.82293791 18.61638487 -93.55088123 6.40720695 -68 0 C-67.2992334 -0.17934082 -66.5984668 -0.35868164 -65.87646484 -0.54345703 C-45.43996702 -5.51556462 -20.34988824 -5.16650304 0 0 Z " fill="#E475B6" transform="translate(210,51)"/>
<path d="M0 0 C0.91007813 0.00902344 1.82015625 0.01804688 2.7578125 0.02734375 C3.80582031 0.04474609 3.80582031 0.04474609 4.875 0.0625 C5.22691406 1.05507812 5.57882813 2.04765625 5.94140625 3.0703125 C10.6130301 18.94307616 10.6130301 18.94307616 19.875 31.0625 C20.06835938 30.41023438 20.26171875 29.75796875 20.4609375 29.0859375 C20.72132813 28.21195313 20.98171875 27.33796875 21.25 26.4375 C21.52328125 25.51582031 21.7965625 24.59414062 22.078125 23.64453125 C22.65264167 21.78298458 23.3032369 19.94432586 24 18.125 C25.10128348 14.27050782 25.26229826 10.54583424 25.43359375 6.55078125 C25.875 4.0625 25.875 4.0625 27.09765625 2.24609375 C29.47014559 0.66617228 31.04547131 0.72828784 33.875 0.8125 C35.174375 0.83570313 35.174375 0.83570313 36.5 0.859375 C38.875 1.0625 38.875 1.0625 41.875 2.0625 C41.875 6.3525 41.875 10.6425 41.875 15.0625 C42.535 14.7325 43.195 14.4025 43.875 14.0625 C44.49166338 11.28361592 44.49166338 11.28361592 44.875 8.0625 C45.3125 4.75 45.3125 4.75 45.875 2.0625 C50.87258816 -0.43629408 59.66171351 0.39845831 65.10546875 1.5234375 C73.07665499 4.74220629 81.37956979 10.76003412 85.6875 18.1875 C87.726566 23.55469672 88.11404816 29.95683385 85.97265625 35.32421875 C84.875 37.25 84.875 37.25 82.875 40.0625 C83.4525 40.26875 84.03 40.475 84.625 40.6875 C87.92164144 42.70211421 89.14278812 44.59807624 90.875 48.0625 C91.53262513 52.57915609 91.3534785 56.59516592 89.9375 60.9375 C85.08653536 65.93546357 79.75983127 67.26579945 72.86791992 67.47924805 C71.81954956 67.48952026 71.81954956 67.48952026 70.75 67.5 C69.74706909 67.5151062 69.74706909 67.5151062 68.72387695 67.53051758 C62.5007559 67.42241605 56.95821095 65.69720346 52.4375 61.25 C50.13485843 58.81298678 49.89139018 58.21001158 49.5 54.6875 C49.685625 53.388125 49.685625 53.388125 49.875 52.0625 C49.215 52.0625 48.555 52.0625 47.875 52.0625 C47.875 56.3525 47.875 60.6425 47.875 65.0625 C46.885 65.3925 45.895 65.7225 44.875 66.0625 C44.875 66.7225 44.875 67.3825 44.875 68.0625 C40.46274263 69.53325246 37.39218381 70.43134358 32.875 69.0625 C32.545 70.3825 32.215 71.7025 31.875 73.0625 C32.844375 72.98 33.81375 72.8975 34.8125 72.8125 C41.16533413 72.82535999 47.74593138 76.08265065 52.390625 80.3359375 C58.14911336 87.03396869 61.91112312 93.7616535 61.3203125 102.7265625 C60.76455565 105.64184846 59.54271264 107.63041907 57.875 110.0625 C56.91749398 115.32878309 59.01451385 118.49402318 61.62890625 122.87109375 C63.12334444 125.49924367 64.05580853 128.15809387 64.875 131.0625 C63.63247321 131.90693568 62.3806114 132.7376458 61.125 133.5625 C60.42890625 134.0265625 59.7328125 134.490625 59.015625 134.96875 C56.875 136.0625 56.875 136.0625 52.875 136.0625 C51.72670023 133.792884 50.58128022 131.52189222 49.4375 129.25 C49.11201172 128.60740234 48.78652344 127.96480469 48.45117188 127.30273438 C47.08267324 124.57984534 45.84016735 121.95800206 44.875 119.0625 C43.885 119.0625 42.895 119.0625 41.875 119.0625 C42.205 124.3425 42.535 129.6225 42.875 135.0625 C37.36357347 136.63719329 33.29100958 137.34903594 27.74609375 137.29296875 C26.99336685 137.29251053 26.24063995 137.29205231 25.46510315 137.2915802 C23.88435272 137.28857768 22.30360471 137.28075195 20.72290039 137.26831055 C18.31581028 137.25002515 15.90910559 137.24780147 13.50195312 137.24804688 C11.95833004 137.24313142 10.41470953 137.23730298 8.87109375 137.23046875 C8.15843857 137.22935593 7.44578339 137.2282431 6.71153259 137.22709656 C2.65934521 137.18894819 -1.14237362 136.77878702 -5.125 136.0625 C-6.4854727 135.99066037 -7.84861515 135.95367717 -9.2109375 135.96484375 C-10.16299072 135.96859009 -10.16299072 135.96859009 -11.13427734 135.97241211 C-12.30531006 135.98606812 -12.30531006 135.98606812 -13.5 136 C-16.01625 136.020625 -18.5325 136.04125 -21.125 136.0625 C-23.435 128.8025 -25.745 121.5425 -28.125 114.0625 C-28.785 114.0625 -29.445 114.0625 -30.125 114.0625 C-31.81745726 119.13987179 -31.43717869 123.97780758 -30.125 129.0625 C-30.08611651 131.39550933 -30.0801365 133.72959801 -30.125 136.0625 C-34.62156104 138.31078052 -38.20372966 138.22932272 -43.125 138.0625 C-43.3415625 137.1034375 -43.3415625 137.1034375 -43.5625 136.125 C-43.93507181 134.08704854 -43.93507181 134.08704854 -45.125 133.0625 C-45.785 133.7225 -46.445 134.3825 -47.125 135.0625 C-50.98536692 136.54725651 -55.06106645 136.25914195 -59.125 136.0625 C-59.785 135.4025 -60.445 134.7425 -61.125 134.0625 C-61.125 132.0825 -61.125 130.1025 -61.125 128.0625 C-65.415 128.0625 -69.705 128.0625 -74.125 128.0625 C-74.125 130.0425 -74.125 132.0225 -74.125 134.0625 C-76.125 136.0625 -76.125 136.0625 -78.47265625 136.29296875 C-79.36855469 136.27878906 -80.26445313 136.26460937 -81.1875 136.25 C-82.08597656 136.24355469 -82.98445313 136.23710937 -83.91015625 136.23046875 C-86.125 136.0625 -86.125 136.0625 -87.125 135.0625 C-87.65423327 127.97339118 -86.79001171 120.93033115 -85.8828125 113.91015625 C-85.75437958 112.88820663 -85.62594666 111.86625702 -85.49362183 110.81333923 C-85.22268062 108.67260476 -84.94856127 106.53227031 -84.67138672 104.39233398 C-84.24820872 101.11111085 -83.84036473 97.82821471 -83.43359375 94.54492188 C-83.16758544 92.458216 -82.90069006 90.37162298 -82.6328125 88.28515625 C-82.45143234 86.81333641 -82.45143234 86.81333641 -82.26638794 85.31178284 C-82.08642776 83.94907509 -82.08642776 83.94907509 -81.90283203 82.55883789 C-81.8006839 81.76071182 -81.69853577 80.96258575 -81.59329224 80.14027405 C-81.125 78.0625 -81.125 78.0625 -79.125 75.0625 C-75.97569107 74.01273036 -73.73685544 73.96118405 -70.4375 74 C-69.44363281 74.00902344 -68.44976562 74.01804687 -67.42578125 74.02734375 C-66.66652344 74.03894531 -65.90726562 74.05054688 -65.125 74.0625 C-64.465 75.3825 -63.805 76.7025 -63.125 78.0625 C-62.135 78.0625 -61.145 78.0625 -60.125 78.0625 C-60.455 76.0825 -60.785 74.1025 -61.125 72.0625 C-59.475 72.0625 -57.825 72.0625 -56.125 72.0625 C-56.8675 71.299375 -57.61 70.53625 -58.375 69.75 C-61.45804655 66.10245197 -62.65336617 62.10458162 -64.14453125 57.625 C-65.30321159 54.59673586 -66.96189784 52.45736311 -69.125 50.0625 C-69.125 49.4025 -69.125 48.7425 -69.125 48.0625 C-70.115 48.0625 -71.105 48.0625 -72.125 48.0625 C-71.63 56.4775 -71.63 56.4775 -71.125 65.0625 C-73.48134171 66.24067085 -75.0821097 66.26347326 -77.7109375 66.37890625 C-78.63600098 66.42112305 -79.56106445 66.46333984 -80.51416016 66.50683594 C-81.4994873 66.54583008 -82.48481445 66.58482422 -83.5 66.625 C-84.50208496 66.6652832 -85.50416992 66.70556641 -86.53662109 66.74707031 C-88.51843732 66.82357838 -90.50037296 66.89706286 -92.48242188 66.96728516 C-94.59810181 67.04351531 -96.71324665 67.13454072 -98.828125 67.23046875 C-108.18635401 67.49319978 -118.66529603 66.09375002 -126.125 60.0625 C-131.24835611 50.76808445 -130.37012166 38.19788891 -130.5 27.9375 C-130.53738281 26.80957031 -130.57476562 25.68164062 -130.61328125 24.51953125 C-130.68782157 17.4382007 -129.9661655 12.44560021 -125.125 7.0625 C-118.95495201 2.50841696 -112.5604781 2.36031384 -105.125 3.0625 C-100.70748536 4.55042378 -97.54577574 7.07533996 -95.125 11.0625 C-94.83203125 13.640625 -94.83203125 13.640625 -94.9375 16.3125 C-94.97810547 17.65054688 -94.97810547 17.65054688 -95.01953125 19.015625 C-95.05433594 19.69109375 -95.08914062 20.3665625 -95.125 21.0625 C-97.64975462 22.32487731 -99.43700466 22.16106404 -102.25 22.125 C-103.16007812 22.11597656 -104.07015625 22.10695312 -105.0078125 22.09765625 C-106.05582031 22.08025391 -106.05582031 22.08025391 -107.125 22.0625 C-107.785 20.0825 -108.445 18.1025 -109.125 16.0625 C-111.435 16.3925 -113.745 16.7225 -116.125 17.0625 C-119.65555673 28.9458373 -116.06994783 41.46676791 -113.125 53.0625 C-109.49429366 54.04768964 -106.21046945 54.22924659 -102.4375 54.25 C-100.69919922 54.27126953 -100.69919922 54.27126953 -98.92578125 54.29296875 C-94.50163701 54.02470101 -90.41209224 53.1417637 -86.125 52.0625 C-86.4322324 47.49962926 -86.74670117 42.93728522 -87.0625 38.375 C-87.14951172 37.08142578 -87.23652344 35.78785156 -87.32617188 34.45507812 C-87.45668945 32.58432617 -87.45668945 32.58432617 -87.58984375 30.67578125 C-87.668396 29.52891846 -87.74694824 28.38205566 -87.82788086 27.20043945 C-88.09133413 24.4180525 -88.56875605 21.79624597 -89.125 19.0625 C-89.21776686 16.30132164 -89.26489066 13.57223567 -89.25 10.8125 C-89.25580078 9.71421875 -89.25580078 9.71421875 -89.26171875 8.59375 C-89.25171034 3.18921034 -89.25171034 3.18921034 -88.125 2.0625 C-78.85745031 1.14879792 -70.98737455 1.81653437 -63.125 7.0625 C-60.82312168 9.21255231 -59.00741219 11.54875573 -57.125 14.0625 C-55.7946875 15.361875 -55.7946875 15.361875 -54.4375 16.6875 C-52.17092249 19.01533636 -50.73865242 21.26302232 -49.125 24.0625 C-49.02703125 22.88171875 -48.9290625 21.7009375 -48.828125 20.484375 C-48.67801591 18.92699316 -48.52692253 17.36970598 -48.375 15.8125 C-48.2821875 14.64654297 -48.2821875 14.64654297 -48.1875 13.45703125 C-47.82880732 9.95977761 -47.3912907 7.52095925 -45.609375 4.453125 C-41.77725951 2.30810438 -38.31152631 3.23950765 -34.125 4.0625 C-34.095271 5.53674438 -34.095271 5.53674438 -34.06494141 7.04077148 C-33.98823566 10.72558009 -33.89962488 14.41002679 -33.80761719 18.09448242 C-33.76959343 19.68197426 -33.73469679 21.26954448 -33.703125 22.85717773 C-33.51326957 32.28765317 -33.13757151 41.02478547 -30.125 50.0625 C-27.815 50.0625 -25.505 50.0625 -23.125 50.0625 C-22.31525097 47.21936669 -22.00258141 44.70547035 -22.01147461 41.75292969 C-22.01155014 40.91236023 -22.01162567 40.07179077 -22.01170349 39.20574951 C-22.01686478 38.30769592 -22.02202606 37.40964233 -22.02734375 36.484375 C-22.0287587 35.5578009 -22.03017365 34.63122681 -22.03163147 33.67657471 C-22.03722176 30.72185008 -22.0497725 27.76720167 -22.0625 24.8125 C-22.06751625 22.80729276 -22.07207894 20.80208433 -22.07617188 18.796875 C-22.08718801 13.88538737 -22.104446 8.9739566 -22.125 4.0625 C-20.33366022 4.00858007 -18.54186101 3.96974429 -16.75 3.9375 C-15.25339844 3.90269531 -15.25339844 3.90269531 -13.7265625 3.8671875 C-11.125 4.0625 -11.125 4.0625 -9.125 6.0625 C-8.83625 5.258125 -8.5475 4.45375 -8.25 3.625 C-6.41189249 -0.56180044 -4.21226372 -0.05400338 0 0 Z " fill="#E474B2" transform="translate(193.125,134.9375)"/>
<path d="M0 0 C7.93370826 0.07271219 14.4387768 1.69566813 20.49609375 7.01953125 C26.57650287 13.7367912 29.94537586 20.58421249 29.93359375 29.62109375 C29.52278648 33.28715861 27.70411783 35.39493112 25.625 38.375 C26.35606341 43.61428777 29.73741011 48.2703608 32.3828125 52.7890625 C33.625 55.375 33.625 55.375 33.625 59.375 C32.40574525 60.07992893 31.1739894 60.76325901 29.9375 61.4375 C29.25300781 61.82035156 28.56851563 62.20320313 27.86328125 62.59765625 C24.92176629 63.61922951 23.51627483 63.54638466 20.625 62.375 C18.89453125 59.79296875 18.89453125 59.79296875 17.4375 56.5625 C16.70466797 54.97501953 16.70466797 54.97501953 15.95703125 53.35546875 C15.51746094 52.37191406 15.07789063 51.38835937 14.625 50.375 C13.96622402 49.03775042 13.30321297 47.70249742 12.625 46.375 C11.635 46.375 10.645 46.375 9.625 46.375 C10.12 54.79 10.12 54.79 10.625 63.375 C8.26865829 64.55317085 6.6678903 64.57597326 4.0390625 64.69140625 C3.11399902 64.73362305 2.18893555 64.77583984 1.23583984 64.81933594 C0.2505127 64.85833008 -0.73481445 64.89732422 -1.75 64.9375 C-2.75208496 64.9777832 -3.75416992 65.01806641 -4.78662109 65.05957031 C-6.76843732 65.13607838 -8.75037296 65.20956286 -10.73242188 65.27978516 C-12.84810181 65.35601531 -14.96324665 65.44704072 -17.078125 65.54296875 C-26.43635401 65.80569978 -36.91529603 64.40625002 -44.375 58.375 C-49.49835611 49.08058445 -48.62012166 36.51038891 -48.75 26.25 C-48.78738281 25.12207031 -48.82476562 23.99414062 -48.86328125 22.83203125 C-48.93782157 15.7507007 -48.2161655 10.75810021 -43.375 5.375 C-37.20495201 0.82091696 -30.8104781 0.67281384 -23.375 1.375 C-18.95748536 2.86292378 -15.79577574 5.38783996 -13.375 9.375 C-13.08203125 11.953125 -13.08203125 11.953125 -13.1875 14.625 C-13.22810547 15.96304688 -13.22810547 15.96304688 -13.26953125 17.328125 C-13.30433594 18.00359375 -13.33914062 18.6790625 -13.375 19.375 C-15.89975462 20.63737731 -17.68700466 20.47356404 -20.5 20.4375 C-21.41007812 20.42847656 -22.32015625 20.41945312 -23.2578125 20.41015625 C-24.30582031 20.39275391 -24.30582031 20.39275391 -25.375 20.375 C-26.035 18.395 -26.695 16.415 -27.375 14.375 C-29.685 14.705 -31.995 15.035 -34.375 15.375 C-37.90555673 27.2583373 -34.31994783 39.77926791 -31.375 51.375 C-27.74429366 52.36018964 -24.46046945 52.54174659 -20.6875 52.5625 C-18.94919922 52.58376953 -18.94919922 52.58376953 -17.17578125 52.60546875 C-12.75163701 52.33720101 -8.66209224 51.4542637 -4.375 50.375 C-4.6822324 45.81212926 -4.99670117 41.24978522 -5.3125 36.6875 C-5.39951172 35.39392578 -5.48652344 34.10035156 -5.57617188 32.76757812 C-5.70668945 30.89682617 -5.70668945 30.89682617 -5.83984375 28.98828125 C-5.918396 27.84141846 -5.99694824 26.69455566 -6.07788086 25.51293945 C-6.34133413 22.7305525 -6.81875605 20.10874597 -7.375 17.375 C-7.46776686 14.61382164 -7.51489066 11.88473567 -7.5 9.125 C-7.50580078 8.02671875 -7.50580078 8.02671875 -7.51171875 6.90625 C-7.49898219 0.02850853 -6.73818602 0.19001392 0 0 Z " fill="#C0334B" transform="translate(111.375,136.625)"/>
<path d="M0 0 C9.57 0.66 19.14 1.32 29 2 C29 5.96 29 9.92 29 14 C28 15 28 15 26.1796875 15.1328125 C25.41914063 15.13023437 24.65859375 15.12765625 23.875 15.125 C22.75738281 15.12886719 22.75738281 15.12886719 21.6171875 15.1328125 C18.37295882 14.96818 15.2088251 14.4942689 12 14 C12.144375 15.04800781 12.28875 16.09601563 12.4375 17.17578125 C12.62510436 18.55467331 12.81259861 19.93358034 13 21.3125 C13.09539062 22.00279297 13.19078125 22.69308594 13.2890625 23.40429688 C13.68027442 26.29647073 14 29.07764977 14 32 C15.60681641 31.98259766 15.60681641 31.98259766 17.24609375 31.96484375 C18.64322743 31.95546701 20.04036299 31.94636669 21.4375 31.9375 C22.14455078 31.92912109 22.85160156 31.92074219 23.58007812 31.91210938 C25.38693559 31.90346412 27.19387603 31.94779989 29 32 C30 33 30 33 30.1328125 35.46875 C30.13023437 36.4690625 30.12765625 37.469375 30.125 38.5 C30.12886719 40.00046875 30.12886719 40.00046875 30.1328125 41.53125 C30 44 30 44 29 45 C26.81360547 45.07258946 24.62499611 45.08373783 22.4375 45.0625 C20.64119141 45.04896484 20.64119141 45.04896484 18.80859375 45.03515625 C17.88175781 45.02355469 16.95492187 45.01195312 16 45 C16 47.31 16 49.62 16 52 C26.395 51.505 26.395 51.505 37 51 C36.7834375 48.133125 36.566875 45.26625 36.34375 42.3125 C36.13454277 39.51584018 35.92635412 36.71910625 35.71826172 33.92236328 C35.57381768 31.98836427 35.42832561 30.05444321 35.28173828 28.12060547 C35.07043998 25.33060546 34.86299287 22.54034083 34.65625 19.75 C34.59062866 18.89446533 34.52500732 18.03893066 34.45739746 17.1574707 C34.08637141 12.09051404 33.84768669 7.08094197 34 2 C35.89265562 0.10734438 39.03874853 0.78211561 41.5625 0.75 C49.29253138 0.82062973 55.5374908 1.78645851 61.48046875 7.23828125 C67.25924968 13.93810182 71.03715522 20.68349253 70.4453125 29.6640625 C69.88955565 32.57934846 68.66771264 34.56791907 67 37 C66.04249398 42.26628309 68.13951385 45.43152318 70.75390625 49.80859375 C72.24834444 52.43674367 73.18080853 55.09559387 74 58 C72.75747321 58.84443568 71.5056114 59.6751458 70.25 60.5 C69.55390625 60.9640625 68.8578125 61.428125 68.140625 61.90625 C66 63 66 63 62 63 C60.85170023 60.730384 59.70628022 58.45939222 58.5625 56.1875 C58.23701172 55.54490234 57.91152344 54.90230469 57.57617188 54.24023438 C56.20767324 51.51734534 54.96516735 48.89550206 54 46 C53.01 46 52.02 46 51 46 C51.495 53.92 51.495 53.92 52 62 C46.47838694 63.57760373 42.3925109 64.28640688 36.8359375 64.23046875 C36.08083893 64.23001053 35.32574036 64.22955231 34.54776001 64.2290802 C32.96281345 64.22607798 31.37786931 64.21825318 29.79296875 64.20581055 C27.3748931 64.18749919 24.95720045 64.18530163 22.5390625 64.18554688 C20.99218421 64.1806325 19.44530849 64.17480453 17.8984375 64.16796875 C17.18062103 64.16685593 16.46280457 64.1657431 15.72323608 64.16459656 C12.02781941 64.1298108 8.59427997 63.87692034 5 63 C4.95512451 62.3287207 4.91024902 61.65744141 4.86401367 60.96582031 C3.8729804 46.36813474 2.65593 31.82681761 0.96557617 17.29199219 C0.77765503 15.64118652 0.77765503 15.64118652 0.5859375 13.95703125 C0.41650635 12.51807495 0.41650635 12.51807495 0.24365234 11.05004883 C-0.04972796 7.37750358 0 3.68424492 0 0 Z " fill="#C0324A" transform="translate(184,208)"/>
<path d="M0 0 C1.21236328 0.02707031 1.21236328 0.02707031 2.44921875 0.0546875 C3.37154297 0.08949219 3.37154297 0.08949219 4.3125 0.125 C4.70308594 1.21941406 5.09367188 2.31382812 5.49609375 3.44140625 C7.50161203 8.78435189 9.92316903 13.9125843 12.375 19.0625 C12.82166016 20.01962891 13.26832031 20.97675781 13.72851562 21.96289062 C14.15970703 22.87103516 14.59089844 23.77917969 15.03515625 24.71484375 C15.42453369 25.53847412 15.81391113 26.36210449 16.21508789 27.21069336 C17.16891465 29.28385165 17.16891465 29.28385165 19.3125 30.125 C19.50585938 29.47273438 19.69921875 28.82046875 19.8984375 28.1484375 C20.15882813 27.27445313 20.41921875 26.40046875 20.6875 25.5 C20.96078125 24.57832031 21.2340625 23.65664062 21.515625 22.70703125 C22.09014167 20.84548458 22.7407369 19.00682586 23.4375 17.1875 C24.53878348 13.33300782 24.69979826 9.60833424 24.87109375 5.61328125 C25.3125 3.125 25.3125 3.125 26.5234375 1.3046875 C28.95076154 -0.29586241 30.61941091 -0.17473074 33.5 -0.0625 C34.40105469 -0.03542969 35.30210937 -0.00835937 36.23046875 0.01953125 C37.26107422 0.07173828 37.26107422 0.07173828 38.3125 0.125 C40.31934464 3.4973318 40.6544643 6.29108004 40.875 10.18359375 C40.94976562 11.37533203 41.02453125 12.56707031 41.1015625 13.79492188 C41.20597656 15.65987305 41.20597656 15.65987305 41.3125 17.5625 C41.72554636 24.73344381 42.18937064 31.79920772 43.3671875 38.890625 C44.28376308 44.46447582 44.55601808 49.7987746 44.4375 55.4375 C44.42847656 56.28505859 44.41945312 57.13261719 44.41015625 58.00585938 C44.38710718 60.04570244 44.35126757 62.08539513 44.3125 64.125 C40.07696141 66.94869239 38.18543746 66.125 32.3125 66.125 C31.3225 58.865 30.3325 51.605 29.3125 44.125 C27.9925 48.745 26.6725 53.365 25.3125 58.125 C21.8475 58.62 21.8475 58.62 18.3125 59.125 C13.55638951 55.32011161 12.19245286 48.6977174 10.3125 43.125 C10.6425 50.055 10.9725 56.985 11.3125 64.125 C8.81110398 65.37569801 7.03857309 65.25802467 4.25 65.25 C3.35152344 65.25257813 2.45304688 65.25515625 1.52734375 65.2578125 C-0.6875 65.125 -0.6875 65.125 -1.6875 64.125 C-1.88045021 62.41242528 -2.0116867 60.69283401 -2.1171875 58.97265625 C-2.18881104 57.895 -2.26043457 56.81734375 -2.33422852 55.70703125 C-2.40955811 54.54558594 -2.4848877 53.38414062 -2.5625 52.1875 C-3.11519471 44.25203578 -3.79065222 36.44763801 -5.25 28.625 C-6.38017917 22.46935706 -7.14375663 16.3719293 -7.5625 10.125 C-7.62381104 9.35220703 -7.68512207 8.57941406 -7.74829102 7.78320312 C-7.8671875 5.625 -7.8671875 5.625 -7.6875 2.125 C-4.48369983 -0.01086678 -3.66810033 -0.10632175 0 0 Z " fill="#C1334B" transform="translate(193.6875,135.875)"/>
<path d="M0 0 C11.1017988 0.01818689 18.38295884 4.59370423 26.75 11.6875 C31.46298503 17.37080548 32.41598205 22.33679513 32.24609375 29.58203125 C31.69168796 33.56791706 30.19104132 35.9930669 27.875 39.25 C28.4525 39.45625 29.03 39.6625 29.625 39.875 C32.92164144 41.88961421 34.14278812 43.78557624 35.875 47.25 C36.53262513 51.76665609 36.3534785 55.78266592 34.9375 60.125 C30.08653536 65.12296357 24.75983127 66.45329945 17.86791992 66.66674805 C16.81954956 66.67702026 16.81954956 66.67702026 15.75 66.6875 C14.74706909 66.7026062 14.74706909 66.7026062 13.72387695 66.71801758 C7.5240976 66.61032152 3.10879499 64.74021248 -1.98828125 61.33984375 C-5.33315086 56.50292992 -5.08283065 51.57087069 -5.3125 45.8125 C-5.44564918 43.45031692 -5.58233378 41.08833031 -5.72265625 38.7265625 C-5.78598145 37.59895508 -5.84930664 36.47134766 -5.91455078 35.30957031 C-6.16219882 31.70919296 -6.64611395 28.24418061 -7.25 24.6875 C-8.09224567 19.40854286 -8.3069676 14.27128727 -8.3125 8.9375 C-8.31330566 8.18847412 -8.31411133 7.43944824 -8.31494141 6.66772461 C-8.23931267 -0.53801335 -6.98965299 0.08207029 0 0 Z " fill="#C1334B" transform="translate(248.125,135.75)"/>
<path d="M0 0 C9.40499051 3.44849652 18.26011903 8.95113634 23 18 C24.46529004 22.66228649 24.65973698 28.16978282 24 33 C23.00512948 34.33716507 22.00573778 35.67098936 21 37 C21.77173473 40.06056017 21.77173473 40.06056017 23.9375 41.9375 C27.15748447 45.15748447 28.28888205 47.89498077 28.3125 52.4375 C28.20121365 56.42416967 27.71553816 58.92239008 25 62 C17.43673094 66.50577731 8.32528077 67.58132019 -0.265625 65.43359375 C-2.0625 64.6875 -2.0625 64.6875 -5 63 C-5.763125 62.62875 -6.52625 62.2575 -7.3125 61.875 C-11.96403228 56.7066308 -11.48805311 46.99765689 -12 40.375 C-12.54142828 33.83957787 -13.17313554 27.36376618 -14.125 20.875 C-15.92959763 7.8674603 -15.92959763 7.8674603 -15 2 C-10.25007294 -1.16661804 -5.55133523 -0.75228375 0 0 Z " fill="#C0334C" transform="translate(76,207)"/>
<path d="M0 0 C0.97066406 -0.01417969 1.94132812 -0.02835938 2.94140625 -0.04296875 C5.4375 0.1875 5.4375 0.1875 7.4375 2.1875 C10.90813575 9.55312872 12.59967447 17.60352257 14.50439453 25.4765625 C16.73388386 34.60668916 19.45731771 43.55316688 22.57421875 52.421875 C23.52674321 55.47340131 23.58882573 58.00965962 23.4375 61.1875 C19.42797425 62.52400858 15.61733803 62.38975023 11.4375 62.1875 C10.7775 61.5275 10.1175 60.8675 9.4375 60.1875 C9.4375 58.2075 9.4375 56.2275 9.4375 54.1875 C5.1475 54.1875 0.8575 54.1875 -3.5625 54.1875 C-3.5625 56.1675 -3.5625 58.1475 -3.5625 60.1875 C-5.5625 62.1875 -5.5625 62.1875 -7.91015625 62.41796875 C-8.80605469 62.40378906 -9.70195313 62.38960938 -10.625 62.375 C-11.52347656 62.36855469 -12.42195313 62.36210937 -13.34765625 62.35546875 C-15.5625 62.1875 -15.5625 62.1875 -16.5625 61.1875 C-17.09173327 54.09839118 -16.22751171 47.05533115 -15.3203125 40.03515625 C-15.19187958 39.01320663 -15.06344666 37.99125702 -14.93112183 36.93833923 C-14.66018062 34.79760476 -14.38606127 32.65727031 -14.10888672 30.51733398 C-13.68570872 27.23611085 -13.27786473 23.95321471 -12.87109375 20.66992188 C-12.60508544 18.583216 -12.33819006 16.49662298 -12.0703125 14.41015625 C-11.9493924 13.42894302 -11.82847229 12.4477298 -11.70388794 11.43678284 C-11.58391449 10.528311 -11.46394104 9.61983917 -11.34033203 8.68383789 C-11.2381839 7.88571182 -11.13603577 7.08758575 -11.03079224 6.26527405 C-10.5625 4.1875 -10.5625 4.1875 -8.5625 1.1875 C-5.47951949 0.15983983 -3.23119574 0.02151262 0 0 Z " fill="#C1334B" transform="translate(122.5625,208.8125)"/>
<path d="M0 0 C0.79664063 0.00644531 1.59328125 0.01289063 2.4140625 0.01953125 C4.375 0.1875 4.375 0.1875 5.375 1.1875 C5.60123521 2.67187809 5.76912965 4.16527425 5.91015625 5.66015625 C5.99716797 6.55927734 6.08417969 7.45839844 6.17382812 8.38476562 C6.26083984 9.33029297 6.34785156 10.27582031 6.4375 11.25 C6.52837891 12.19939453 6.61925781 13.14878906 6.71289062 14.12695312 C6.93756498 16.48012135 7.15808182 18.83360619 7.375 21.1875 C7.91769531 20.09050781 8.46039063 18.99351562 9.01953125 17.86328125 C9.7420797 16.40880061 10.46474196 14.9543765 11.1875 13.5 C11.54392578 12.77876953 11.90035156 12.05753906 12.26757812 11.31445312 C14.16306219 7.50609523 16.11707126 3.79876143 18.375 0.1875 C19.81336751 0.30208693 21.25070966 0.42959116 22.6875 0.5625 C23.88826172 0.66691406 23.88826172 0.66691406 25.11328125 0.7734375 C27.375 1.1875 27.375 1.1875 30.375 3.1875 C29.32461653 8.07194986 26.70985183 12.10141438 24.16992188 16.34765625 C21.59512936 20.91989178 20.326822 24.91653234 21.375 30.1875 C22.79766447 34.34286124 24.5603171 38.31529308 26.375 42.3125 C27.32245008 44.4148149 28.26031571 46.52148143 29.1875 48.6328125 C29.60644531 49.55594238 30.02539062 50.47907227 30.45703125 51.43017578 C31.47722482 54.49455508 31.54035908 56.97894334 31.375 60.1875 C26.69597716 62.3893931 24.74983542 63.1875 19.375 63.1875 C17.065 55.9275 14.755 48.6675 12.375 41.1875 C11.715 41.1875 11.055 41.1875 10.375 41.1875 C8.68254274 46.26487179 9.06282131 51.10280758 10.375 56.1875 C10.45405064 58.51949388 10.46298769 60.85582622 10.375 63.1875 C9.375 64.1875 9.375 64.1875 6.87109375 64.28515625 C5.86175781 64.27355469 4.85242188 64.26195312 3.8125 64.25 C2.29462891 64.23646484 2.29462891 64.23646484 0.74609375 64.22265625 C-0.03636719 64.21105469 -0.81882813 64.19945312 -1.625 64.1875 C-2.55857424 55.53918044 -3.48547999 46.89015733 -4.40637207 38.24047852 C-4.55198692 36.87311365 -4.69773861 35.50576335 -4.84362793 34.13842773 C-5.33740361 29.50938443 -5.82600299 24.87981516 -6.3125 20.25 C-6.50936401 18.40402222 -6.50936401 18.40402222 -6.71020508 16.52075195 C-6.83032959 15.37050537 -6.9504541 14.22025879 -7.07421875 13.03515625 C-7.18080811 12.02461182 -7.28739746 11.01406738 -7.3972168 9.97290039 C-7.84811653 4.45916503 -7.84811653 4.45916503 -7.625 2.1875 C-4.45557116 0.07454744 -3.62870047 -0.06500929 0 0 Z " fill="#C0334D" transform="translate(152.625,207.8125)"/>
<path d="M0 0 C3.63 0 7.26 0 11 0 C12.88344162 12.01815127 14.30712434 23.88258961 14.375 36.0625 C14.38853516 37.06603516 14.40207031 38.06957031 14.41601562 39.10351562 C14.38318157 44.46276357 14.10301762 48.42448559 11 53 C6.49725361 57.39604624 1.30238483 59.81727105 -4.9375 60.3125 C-9.56108983 60.16475371 -13.08782163 58.93866284 -16.41015625 55.5703125 C-24.83529475 45.69595193 -24.31080068 34.57656096 -24.20581055 22.1809082 C-24.18727724 19.91020744 -24.18530336 17.63990999 -24.18554688 15.36914062 C-24.14800514 4.29601028 -24.14800514 4.29601028 -23 2 C-19.37 2 -15.74 2 -12 2 C-11.98018066 2.92224365 -11.96036133 3.8444873 -11.93994141 4.79467773 C-11.86128318 8.25585685 -11.77457465 11.71664848 -11.68261719 15.17749023 C-11.6446185 16.66797273 -11.60971804 18.15853789 -11.578125 19.64916992 C-11.38197919 28.79140347 -10.92085407 37.23743779 -8 46 C-5.69 46 -3.38 46 -1 46 C-0.19025097 43.15686669 0.12241859 40.64297035 0.11352539 37.69042969 C0.11344986 36.84986023 0.11337433 36.00929077 0.11329651 35.14324951 C0.10813522 34.24519592 0.10297394 33.34714233 0.09765625 32.421875 C0.0962413 31.4953009 0.09482635 30.56872681 0.09336853 29.61407471 C0.08777824 26.65935008 0.0752275 23.70470167 0.0625 20.75 C0.05748375 18.74479276 0.05292106 16.73958433 0.04882812 14.734375 C0.03781199 9.82288737 0.020554 4.9114566 0 0 Z " fill="#C0324A" transform="translate(171,139)"/>
<path d="M0 0 C3.93774177 -0.36630156 5.56539771 -0.30233203 8.875 2 C9.57625 2.66 10.2775 3.32 11 4 C10.41229512 7.37781894 9.55323258 10.29794741 8.1875 13.4375 C2.55090793 27.23177806 0.00470412 41.24451 -0.65625 56.06640625 C-1 59 -1 59 -3 62 C-5.3828125 62.29296875 -5.3828125 62.29296875 -8.125 62.1875 C-9.03507812 62.16042969 -9.94515625 62.13335937 -10.8828125 62.10546875 C-11.58148438 62.07066406 -12.28015625 62.03585937 -13 62 C-16.69896002 54.60207996 -13.5282957 43.65126784 -11.65625 36.09375 C-10.68488331 32.04775881 -10.68488331 32.04775881 -11 28 C-13.01477879 25.82438412 -15.34458788 24.15803784 -17.75 22.4375 C-19.01741076 21.50111014 -20.28307992 20.56235779 -21.546875 19.62109375 C-22.1445166 19.17620605 -22.7421582 18.73131836 -23.35791016 18.27294922 C-25.43176389 16.66529632 -27.27625626 14.97927359 -29 13 C-29.125 11 -29.125 11 -28 9 C-25.13445189 6.59033454 -23.24506117 5.03036735 -19.4375 4.9375 C-16.2061003 6.34605884 -14.42455354 8.45717556 -12 11 C-10.0520068 12.44022246 -8.05407228 13.71023368 -6 15 C-5.7525 13.824375 -5.505 12.64875 -5.25 11.4375 C-4.18103871 7.09193997 -2.36422459 3.78275934 0 0 Z " fill="#C1334B" transform="translate(280,209)"/>
<path d="M0 0 C1.48687869 3.86588459 0.52546431 6.24818237 -1 10 C-1.90974811 11.75723973 -2.82159477 13.51368612 -3.76708984 15.25195312 C-8.5594496 24.12486956 -11.26697816 33.04408013 -13.49755859 42.84570312 C-13.98647152 44.94199451 -14.53675305 47.01469724 -15.09375 49.09375 C-19.35157696 66.10827825 -18.57789947 88.05396541 -15.4375 105.1953125 C-14.97327236 108.17134329 -14.92861365 110.99284991 -15 114 C-26.8146702 94.17190132 -21.24917075 58.92362226 -15.93359375 37.6328125 C-12.42418236 24.42763196 -7.05694108 11.70736769 0 0 Z " fill="#B36694" transform="translate(46,122)"/>
<path d="M0 0 C3.59836113 0.58896942 5.45835011 1.99898556 8.125 4.4375 C8.80820313 5.05496094 9.49140625 5.67242187 10.1953125 6.30859375 C11.48461379 7.51696487 12.75050839 8.75050839 14 10 C13.91939503 14.27206359 13.38115135 16.48816819 10.8125 19.9375 C7.49178465 22.37269126 6.00055148 22.18259779 2 22 C1.66076424 19.64655194 1.32849466 17.2924516 1 14.9375 C0.85691406 13.95233398 0.85691406 13.95233398 0.7109375 12.94726562 C0.11112326 8.59861237 -0.09127093 4.38670929 0 0 Z " fill="#E570AD" transform="translate(74,220)"/>
<path d="M0 0 C4.28049394 0.52460761 6.57623007 1.86985205 9.8125 4.6875 C10.99779297 5.68330078 10.99779297 5.68330078 12.20703125 6.69921875 C14 9 14 9 14.37890625 12.09375 C13.89810479 15.78154673 12.56153409 17.36312667 10 20 C7.29120665 21.35439668 4.99066732 21.06501451 2 21 C1.6616656 18.62561751 1.32920998 16.25065041 1 13.875 C0.90460938 13.20984375 0.80921875 12.5446875 0.7109375 11.859375 C0.16388547 7.87371019 -0.10022182 4.02140062 0 0 Z " fill="#E573AF" transform="translate(253,149)"/>
<path d="M0 0 C1.77049689 -0.05410687 3.54146849 -0.09284119 5.3125 -0.125 C6.29863281 -0.14820313 7.28476563 -0.17140625 8.30078125 -0.1953125 C11 0 11 0 14 2 C7.565 2.495 7.565 2.495 1 3 C0.77354365 12.23438665 1.12792692 21.14884845 2.28417969 30.31542969 C3.15892051 37.56914693 3.1938046 44.70002686 3 52 C2.34 52 1.68 52 1 52 C0.67 43.09 0.34 34.18 0 25 C-0.66 25 -1.32 25 -2 25 C-2 24.34 -2 23.68 -2 23 C-2.99 22.67 -3.98 22.34 -5 22 C-5.66 22.33 -6.32 22.66 -7 23 C-8.87379605 23.07033769 -10.75001102 23.0843022 -12.625 23.0625 C-13.62789063 23.05347656 -14.63078125 23.04445312 -15.6640625 23.03515625 C-16.43492188 23.02355469 -17.20578125 23.01195312 -18 23 C-18 22.67 -18 22.34 -18 22 C-14.04 21.67 -10.08 21.34 -6 21 C-6 18.69 -6 16.38 -6 14 C-5.34 14 -4.68 14 -4 14 C-3.896875 12.989375 -3.79375 11.97875 -3.6875 10.9375 C-2.96295233 6.78781792 -1.77730734 3.78643737 0 0 Z " fill="#E36EA6" transform="translate(104,135)"/>
<path d="M0 0 C10.56150819 20.1262366 7.11655585 55.90457927 1 77 C0.34 77.99 -0.32 78.98 -1 80 C-0.86722656 78.83984375 -0.73445313 77.6796875 -0.59765625 76.484375 C-0.0493501 71.65793348 0.47938635 66.82950018 1 62 C1.11730469 60.92105469 1.23460937 59.84210938 1.35546875 58.73046875 C2.69196141 44.88130565 2.02335397 31.28291003 0.71166992 17.46191406 C0.16397724 11.60750354 -0.09719933 5.88055921 0 0 Z " fill="#AE6490" transform="translate(321,160)"/>
<path d="M0 0 C1 3 1 3 1 6 C-0.27875 6.2475 -1.5575 6.495 -2.875 6.75 C-6.14258064 7.47324861 -6.14258064 7.47324861 -8.3125 9.875 C-8.539375 10.57625 -8.76625 11.2775 -9 12 C-10.4375 14.25 -10.4375 14.25 -12 16 C-12.99 16 -13.98 16 -15 16 C-15 16.66 -15 17.32 -15 18 C-16.32 18.33 -17.64 18.66 -19 19 C-19 20.32 -19 21.64 -19 23 C-19.66 23 -20.32 23 -21 23 C-21.33 23.99 -21.66 24.98 -22 26 C-22.66 26 -23.32 26 -24 26 C-24 26.66 -24 27.32 -24 28 C-24.99 28 -25.98 28 -27 28 C-27.11472656 28.72832031 -27.22945312 29.45664063 -27.34765625 30.20703125 C-28.01721122 33.07368877 -28.98069186 35.1413279 -30.4375 37.6875 C-30.86933594 38.45449219 -31.30117188 39.22148438 -31.74609375 40.01171875 C-33 42 -33 42 -35 44 C-35.99 44 -36.98 44 -38 44 C-33.66203119 31.83579881 -23.81885744 22.10072393 -15 13 C-14.32710937 12.28714844 -13.65421875 11.57429688 -12.9609375 10.83984375 C-8.99409743 6.71903957 -4.66223238 3.30594659 0 0 Z " fill="#B06391" transform="translate(85,78)"/>
<path d="M0 0 C5.21709323 0.02661782 9.51000545 0.33416874 14.375 2.1875 C14.375 2.5175 14.375 2.8475 14.375 3.1875 C7.775 3.1875 1.175 3.1875 -5.625 3.1875 C-5.295 5.1675 -4.965 7.1475 -4.625 9.1875 C-4.50232425 10.66324505 -4.40678562 12.14160083 -4.34375 13.62109375 C-4.30701172 14.42796631 -4.27027344 15.23483887 -4.23242188 16.06616211 C-4.17924805 17.33278687 -4.17924805 17.33278687 -4.125 18.625 C-4.0425525 20.40629122 -3.95921025 22.18754124 -3.875 23.96875 C-3.83375 24.84789062 -3.7925 25.72703125 -3.75 26.6328125 C-3.57060857 30.29912491 -3.35577057 33.96151727 -3.125 37.625 C-3.0528125 38.77871094 -2.980625 39.93242187 -2.90625 41.12109375 C-2.65346705 43.87713009 -2.23013529 46.48960517 -1.625 49.1875 C-3.79279843 51.46567513 -5.5195254 53.06309877 -8.72509766 53.42382812 C-11.1465308 53.35672143 -13.52709621 53.17720866 -15.9375 52.9375 C-16.77345703 52.87175781 -17.60941406 52.80601562 -18.47070312 52.73828125 C-20.52377508 52.57403549 -22.57470386 52.38337461 -24.625 52.1875 C-24.625 51.8575 -24.625 51.5275 -24.625 51.1875 C-14.725 50.6925 -14.725 50.6925 -4.625 50.1875 C-4.8415625 47.320625 -5.058125 44.45375 -5.28125 41.5 C-5.49045723 38.70334018 -5.69864588 35.90660625 -5.90673828 33.10986328 C-6.05118232 31.17586427 -6.19667439 29.24194321 -6.34326172 27.30810547 C-6.55456002 24.51810546 -6.76200713 21.72784083 -6.96875 18.9375 C-7.03437134 18.08196533 -7.09999268 17.22643066 -7.16760254 16.3449707 C-7.53862859 11.27801404 -7.77731331 6.26844197 -7.625 1.1875 C-5.73007035 -0.70742965 -2.52265247 0.01327712 0 0 Z " fill="#BD395D" transform="translate(225.625,208.8125)"/>
<path d="M0 0 C0.99 0.33 1.98 0.66 3 1 C3.89135742 2.81005859 3.89135742 2.81005859 4.60546875 5.1484375 C4.86650391 5.98890625 5.12753906 6.829375 5.39648438 7.6953125 C5.65751953 8.57960938 5.91855469 9.46390625 6.1875 10.375 C6.46013672 11.2515625 6.73277344 12.128125 7.01367188 13.03125 C9 19.5428219 9 19.5428219 9 23 C12.465 22.505 12.465 22.505 16 22 C16 22.66 16 23.32 16 24 C13.03 24 10.06 24 7 24 C6.67 22.68 6.34 21.36 6 20 C5.34 19.67 4.68 19.34 4 19 C3.67 19.66 3.34 20.32 3 21 C2.01 21.66 1.02 22.32 0 23 C-3.26213592 7.15533981 -3.26213592 7.15533981 -1 1.5 C-0.67 1.005 -0.34 0.51 0 0 Z " fill="#E373AF" transform="translate(163,248)"/>
<path d="M0 0 C1.258125 -0.020625 2.51625 -0.04125 3.8125 -0.0625 C4.52019531 -0.07410156 5.22789062 -0.08570313 5.95703125 -0.09765625 C8 0 8 0 11 1 C11 1.66 11 2.32 11 3 C11.66 3 12.32 3 13 3 C13.25 5.3125 13.25 5.3125 13 8 C10.66346177 10.71038434 9.1248387 10.98411144 5.5625 11.4375 C1.42744578 10.92968632 -0.20168878 10.05270315 -3 7 C-3 5.68 -3 4.36 -3 3 C-2.34 3 -1.68 3 -1 3 C-0.67 2.01 -0.34 1.02 0 0 Z " fill="#E274B7" transform="translate(259,182)"/>
<path d="M0 0 C1.23564697 0.09087891 2.47129395 0.18175781 3.74438477 0.27539062 C8.3493434 0.61339836 12.95454017 0.94806113 17.55981445 1.28173828 C19.54913834 1.42633992 21.53839741 1.57183633 23.52758789 1.71826172 C26.39452616 1.92913984 29.26168573 2.13674923 32.12890625 2.34375 C33.45276085 2.44218201 33.45276085 2.44218201 34.80335999 2.54260254 C42.24803704 3.07469975 48.98305449 3.17176371 56.3125 1.5 C62.27555808 0.20168199 67.90091815 -0.38747108 74 0 C57.63815368 10.90789755 24.9529131 6.01053396 6.68359375 2.8515625 C3 2 3 2 0 0 Z " fill="#B56995" transform="translate(139,344)"/>
<path d="M0 0 C9.57 0.66 19.14 1.32 29 2 C29 5.96 29 9.92 29 14 C28 15 28 15 25.93359375 15.09765625 C25.10988281 15.08605469 24.28617188 15.07445312 23.4375 15.0625 C22.61121094 15.05347656 21.78492188 15.04445312 20.93359375 15.03515625 C20.29550781 15.02355469 19.65742188 15.01195312 19 15 C19 14.67 19 14.34 19 14 C20.98 14 22.96 14 25 14 C26.52848623 10.35568117 26.52848623 10.35568117 24 4 C17.73 4 11.46 4 5 4 C3.40709863 7.98225343 2.70116843 10.23539461 2.375 14.3125 C2.30023438 15.19550781 2.22546875 16.07851562 2.1484375 16.98828125 C2.09945312 17.65214844 2.05046875 18.31601563 2 19 C1.67 19 1.34 19 1 19 C0.67 12.73 0.34 6.46 0 0 Z " fill="#BF3859" transform="translate(184,208)"/>
<path d="M0 0 C0.33 0 0.66 0 1 0 C3.38776806 27.94514191 3.38776806 27.94514191 3 41 C-1.4378561 42.11165232 -5.76956386 42.11527763 -10.3125 42.0625 C-11.05306641 42.05798828 -11.79363281 42.05347656 -12.55664062 42.04882812 C-14.37112899 42.03712175 -16.18557534 42.01918898 -18 42 C-18 39.69 -18 37.38 -18 35 C-11.565 34.505 -11.565 34.505 -5 34 C-4.67 31.36 -4.34 28.72 -4 26 C-3.67 26 -3.34 26 -3 26 C-2.94600264 27.45792884 -2.90720823 28.91642712 -2.875 30.375 C-2.85179687 31.18710938 -2.82859375 31.99921875 -2.8046875 32.8359375 C-3 35 -3 35 -5 37 C-7.8203125 36.9765625 -7.8203125 36.9765625 -11.125 36.625 C-12.22070312 36.51414063 -13.31640625 36.40328125 -14.4453125 36.2890625 C-15.28835937 36.19367188 -16.13140625 36.09828125 -17 36 C-16.67 37.32 -16.34 38.64 -16 40 C-10.72 40 -5.44 40 0 40 C0 39.34 0 38.68 0 38 C0.66 38 1.32 38 2 38 C1.855625 37.01644531 1.71125 36.03289062 1.5625 35.01953125 C-0.04142568 23.30744296 -0.20776815 11.80815665 0 0 Z " fill="#E56CA0" transform="translate(218,218)"/>
<path d="M0 0 C0.33 0 0.66 0 1 0 C1.12117187 1.11375 1.24234375 2.2275 1.3671875 3.375 C1.53629307 4.9166848 1.70557762 6.45834998 1.875 8 C1.96378418 8.81291504 2.05256836 9.62583008 2.14404297 10.46337891 C2.5822211 14.42700433 3.03955531 18.38459458 3.578125 22.3359375 C4.65731689 30.2727312 5.27325427 37.9845413 5 46 C7.31 46 9.62 46 12 46 C12 46.33 12 46.66 12 47 C9.36 47 6.72 47 4 47 C3.855625 46.360625 3.71125 45.72125 3.5625 45.0625 C3.18992819 43.02454854 3.18992819 43.02454854 2 42 C1.01 42.495 1.01 42.495 0 43 C-0.99 39.04 -1.98 35.08 -3 31 C-2.01 31 -1.02 31 0 31 C0 20.77 0 10.54 0 0 Z " fill="#E0679E" transform="translate(146,226)"/>
<path d="M0 0 C0.88429688 -0.01417969 1.76859375 -0.02835938 2.6796875 -0.04296875 C5.125 0.1875 5.125 0.1875 8.125 2.1875 C8.4375 4.6875 8.4375 4.6875 8.125 7.1875 C5.61487037 9.69762963 4.65694763 9.48471609 1.1875 9.5 C-0.12541016 9.52513672 -0.12541016 9.52513672 -1.46484375 9.55078125 C-3.875 9.1875 -3.875 9.1875 -5.70703125 7.83203125 C-6.875 6.1875 -6.875 6.1875 -6.625 3.5625 C-5.35063431 -0.47299137 -4.01445001 0.02909022 0 0 Z " fill="#E370AB" transform="translate(83.875,253.8125)"/>
<path d="M0 0 C0.97066406 -0.01417969 1.94132812 -0.02835938 2.94140625 -0.04296875 C5.4375 0.1875 5.4375 0.1875 7.4375 2.1875 C10.44142118 8.94632265 12.23787093 15.91080262 13.4375 23.1875 C12.4475 23.1875 11.4575 23.1875 10.4375 23.1875 C10.4375 20.5475 10.4375 17.9075 10.4375 15.1875 C9.4475 15.1875 8.4575 15.1875 7.4375 15.1875 C6.29985649 10.92133684 5.4375 7.62263689 5.4375 3.1875 C-0.5025 3.6825 -0.5025 3.6825 -6.5625 4.1875 C-7.2225 5.8375 -7.8825 7.4875 -8.5625 9.1875 C-9.2225 10.1775 -9.8825 11.1675 -10.5625 12.1875 C-10.8125 4.5625 -10.8125 4.5625 -8.5625 1.1875 C-5.47951949 0.15983983 -3.23119574 0.02151262 0 0 Z " fill="#BE3A5D" transform="translate(122.5625,208.8125)"/>
<path d="M0 0 C2.79049103 4.18573654 2.38742254 8.31966358 2.47851562 13.1953125 C2.5668612 17.33232076 2.5668612 17.33232076 4.47265625 20.875 C4.97667969 21.24625 5.48070312 21.6175 6 22 C6.33 22.66 6.66 23.32 7 24 C9.52733235 24.65555119 9.52733235 24.65555119 12 25 C12 25.66 12 26.32 12 27 C14.54173977 27.02716824 17.08318415 27.04691969 19.625 27.0625 C20.69427734 27.07506836 20.69427734 27.07506836 21.78515625 27.08789062 C25.95456536 27.10701635 29.92209827 26.99141648 34 26 C35.30065921 24.06616713 35.30065921 24.06616713 36 22 C36.66 21.67 37.32 21.34 38 21 C38.43083835 19.00891595 38.43083835 19.00891595 38.5625 16.6875 C38.80590173 13.68223372 39.1945856 10.9088107 40 8 C42.20782219 12.41564438 41.5535375 18.30248501 40.0625 22.875 C35.21153536 27.87296357 29.88483127 29.20329945 22.99291992 29.41674805 C21.94454956 29.42702026 21.94454956 29.42702026 20.875 29.4375 C19.87206909 29.4526062 19.87206909 29.4526062 18.84887695 29.46801758 C12.61930249 29.35980395 8.17218223 27.51376705 3.11328125 23.98828125 C-0.01749121 19.56121853 0.21954648 15.48941207 0.1875 10.1875 C0.16236328 9.20845703 0.13722656 8.22941406 0.11132812 7.22070312 C0.05261337 4.81339803 0.0162202 2.40790438 0 0 Z " fill="#BB385A" transform="translate(243,173)"/>
<path d="M0 0 C4.67570171 1.16892543 5.48582887 2.01200441 8 6 C9 9.5625 9 9.5625 9 13 C7.3125 15.4375 7.3125 15.4375 5 17 C3.68 17 2.36 17 1 17 C0.67 11.39 0.34 5.78 0 0 Z " fill="#E26CA4" transform="translate(232,224)"/>
<path d="M0 0 C4.10528321 2.05264161 5.61932283 3.17391168 8 7 C8.43035036 10.56576009 8.67084052 12.87016333 6.8125 16 C5 17 5 17 0 16 C0 10.72 0 5.44 0 0 Z " fill="#E477B4" transform="translate(119,152)"/>
<path d="M0 0 C2.05986949 0.01073357 4.11886737 0.00002581 6.17871094 -0.01269531 C14.63628487 -0.02026564 22.74569418 0.69796434 31.06152344 2.26074219 C27.62161353 4.55401546 27.16502197 4.40242232 23.26464844 3.88964844 C13.47137859 2.88759445 3.64391817 3.15545052 -6.18847656 3.19824219 C-8.20540253 3.20326748 -10.22232972 3.20782857 -12.23925781 3.21191406 C-17.13902778 3.22283751 -22.03873853 3.24004535 -26.93847656 3.26074219 C-26.93847656 2.93074219 -26.93847656 2.60074219 -26.93847656 2.26074219 C-17.93533269 0.56879863 -9.14519574 -0.05647864 0 0 Z " fill="#A9608C" transform="translate(173.9384765625,47.7392578125)"/>
<path d="M0 0 C1.00798335 3.23876616 0.99260851 5.83949039 0.66015625 9.203125 C0.56669922 10.1828125 0.47324219 11.1625 0.37695312 12.171875 C0.27318359 13.18765625 0.16941406 14.2034375 0.0625 15.25 C-0.03740234 16.28125 -0.13730469 17.3125 -0.24023438 18.375 C-0.4874052 20.91732849 -0.74087545 23.4588667 -1 26 C1.97 26.33 4.94 26.66 8 27 C8.33 20.07 8.66 13.14 9 6 C11 8 11 8 11.16699219 9.83178711 C11.12735352 10.5563208 11.08771484 11.28085449 11.046875 12.02734375 C11.00433594 12.81947266 10.96179688 13.61160156 10.91796875 14.42773438 C10.86253906 15.25595703 10.80710937 16.08417969 10.75 16.9375 C10.71003906 17.76185547 10.67007812 18.58621094 10.62890625 19.43554688 C10.25751256 25.61373117 10.25751256 25.61373117 8 29 C5.6171875 29.29296875 5.6171875 29.29296875 2.875 29.1875 C1.96492188 29.16042969 1.05484375 29.13335937 0.1171875 29.10546875 C-0.58148438 29.07066406 -1.28015625 29.03585937 -2 29 C-6.07682544 20.84634911 -2.09293609 8.30945459 0 0 Z " fill="#BF3B61" transform="translate(269,242)"/>
<path d="M0 0 C0.66 0 1.32 0 2 0 C2 4.29 2 8.58 2 13 C2.66 12.67 3.32 12.34 4 12 C4.69227032 9.19019327 4.69227032 9.19019327 5.125 5.9375 C5.29257813 4.83277344 5.46015625 3.72804687 5.6328125 2.58984375 C5.75398437 1.73519531 5.87515625 0.88054687 6 0 C6.33 0 6.66 0 7 0 C7.33 7.59 7.66 15.18 8 23 C7.34 23 6.68 23 6 23 C5.67 21.68 5.34 20.36 5 19 C3.55611429 20.21428988 3.55611429 20.21428988 3.90234375 23.81640625 C3.90901911 25.39846682 3.92098125 26.98051159 3.9375 28.5625 C3.94201172 29.36880859 3.94652344 30.17511719 3.95117188 31.00585938 C3.96299482 33.00393756 3.98093086 35.00197783 4 37 C3.67 37 3.34 37 3 37 C1.68717674 24.67475639 0.60941224 12.38069085 0 0 Z " fill="#E06BA1" transform="translate(233,137)"/>
<path d="M0 0 C0.99 0.495 0.99 0.495 2 1 C2.01458252 2.08007324 2.02916504 3.16014648 2.04418945 4.27294922 C2.10207546 8.27263838 2.17930773 12.27175876 2.26245117 16.27099609 C2.29574643 18.00332421 2.32376397 19.735762 2.34643555 21.46826172 C2.37989807 23.95588007 2.43220658 26.44248904 2.48828125 28.9296875 C2.49786613 30.09538773 2.49786613 30.09538773 2.50764465 31.28463745 C2.53966898 33.69967927 2.53966898 33.69967927 3 37 C3.99 37.66 4.98 38.32 6 39 C6 39.99 6 40.98 6 42 C7.65 42 9.3 42 11 42 C11 42.66 11 43.32 11 44 C8.69 44 6.38 44 4 44 C0.39084332 37.40936606 -0.12744088 31.86021879 -0.09765625 24.4140625 C-0.0962413 23.71227875 -0.09482635 23.010495 -0.09336853 22.28744507 C-0.0878129 20.06658496 -0.07526892 17.84582916 -0.0625 15.625 C-0.05747926 14.11067855 -0.05291736 12.5963555 -0.04882812 11.08203125 C-0.03785807 7.38798748 -0.02062449 3.69400394 0 0 Z " fill="#E0699B" transform="translate(159,141)"/>
<path d="M0 0 C0.33 0 0.66 0 1 0 C1 1.65 1 3.3 1 5 C1.66 5 2.32 5 3 5 C3.22278071 7.56197812 3.42862563 10.12347556 3.625 12.6875 C3.72167969 13.7693457 3.72167969 13.7693457 3.8203125 14.87304688 C4.13102342 19.12590254 3.97020088 22.18743571 2 26 C-2.51490811 21.48509189 -2.10915013 11.9897728 -2.25 5.8125 C-2 2 -2 2 0 0 Z " fill="#E477B6" transform="translate(238,155)"/>
<path d="M0 0 C0.33 0 0.66 0 1 0 C0.40211877 10.0695786 -0.66317243 20.00624051 -2 30 C-3.546875 30.433125 -3.546875 30.433125 -5.125 30.875 C-7.46274153 31.53162948 -9.668459 32.25355341 -11.9453125 33.1171875 C-15.63432177 34.18332062 -19.07566838 34.22071959 -22.875 34.125 C-23.56335938 34.11597656 -24.25171875 34.10695313 -24.9609375 34.09765625 C-26.64077838 34.07432513 -28.32043746 34.03846326 -30 34 C-30 33.67 -30 33.34 -30 33 C-28.76636719 32.94392578 -28.76636719 32.94392578 -27.5078125 32.88671875 C-16.9507194 32.3098517 -16.9507194 32.3098517 -7 29 C-4.93489174 26.10884843 -4.91093971 23.32057138 -4.5 19.875 C-4 16 -4 16 -2 13 C-1.57796044 10.06439861 -1.57796044 10.06439861 -1.4375 6.875 C-1.09808917 1.09808917 -1.09808917 1.09808917 0 0 Z " fill="#E16A9D" transform="translate(108,240)"/>
<path d="M0 0 C3.05906926 2.51066469 3.75191278 4.90059933 4.6875 8.6875 C5.06455078 10.17830078 5.06455078 10.17830078 5.44921875 11.69921875 C5.63097656 12.45847656 5.81273437 13.21773437 6 14 C5.01 14.495 5.01 14.495 4 15 C4.12375 16.60875 4.12375 16.60875 4.25 18.25 C4 22 4 22 2.25 24.4375 C0 26 0 26 -4 26 C-4 25.34 -4 24.68 -4 24 C-5.98 24 -7.96 24 -10 24 C-10 23.67 -10 23.34 -10 23 C-6.04 22.67 -2.08 22.34 2 22 C1.855625 21.0821875 1.71125 20.164375 1.5625 19.21875 C0.58361714 12.74724667 -0.26184366 6.54609151 0 0 Z " fill="#E46FA6" transform="translate(203,178)"/>
<path d="M0 0 C0 0.66 0 1.32 0 2 C-6.01339937 3.95928381 -11.69632197 5.41632611 -18 6 C-18 6.66 -18 7.32 -18 8 C-18.928125 8.28875 -19.85625 8.5775 -20.8125 8.875 C-24.09791667 9.8875 -24.09791667 9.8875 -27 12 C-30.1875 11.625 -30.1875 11.625 -33 11 C-30.15984919 8.67705732 -27.63865562 7.3441333 -24.15625 6.2109375 C-22.78146484 5.75847656 -22.78146484 5.75847656 -21.37890625 5.296875 C-20.42886719 4.99265625 -19.47882813 4.6884375 -18.5 4.375 C-17.54996094 4.06304687 -16.59992188 3.75109375 -15.62109375 3.4296875 C-5.11028421 0 -5.11028421 0 0 0 Z " fill="#AA618E" transform="translate(146,51)"/>
<path d="M0 0 C0.33 0 0.66 0 1 0 C1.50780894 2.20655075 2.00591365 4.41533605 2.5 6.625 C2.7784375 7.85476562 3.056875 9.08453125 3.34375 10.3515625 C3.94091621 13.67152228 4.12409534 16.63908451 4 20 C2.02 20 0.04 20 -2 20 C-2.21133202 12.95559921 -2.07965362 6.75887425 0 0 Z " fill="#E773AF" transform="translate(123,230)"/>
<path d="M0 0 C5.12642069 0.07641338 8.41434408 0.68053212 12.79736328 3.25317383 C13.76673828 3.81004883 14.73611328 4.36692383 15.73486328 4.94067383 C16.41548828 5.37379883 17.09611328 5.80692383 17.79736328 6.25317383 C14.79736328 7.25317383 14.79736328 7.25317383 11.60986328 5.81567383 C10.68173828 5.30004883 9.75361328 4.78442383 8.79736328 4.25317383 C8.79736328 3.59317383 8.79736328 2.93317383 8.79736328 2.25317383 C3.18736328 1.92317383 -2.42263672 1.59317383 -8.20263672 1.25317383 C-8.22326172 3.52192383 -8.24388672 5.79067383 -8.26513672 8.12817383 C-8.27673828 9.4043457 -8.28833984 10.68051758 -8.30029297 11.99536133 C-8.43440241 15.13982034 -8.43440241 15.13982034 -7.20263672 17.25317383 C-7.13096322 19.80475038 -7.1095523 22.32790354 -7.14013672 24.87817383 C-7.14464844 25.58458008 -7.14916016 26.29098633 -7.15380859 27.01879883 C-7.16559797 28.76362658 -7.18353347 30.50841083 -7.20263672 32.25317383 C-7.53263672 32.25317383 -7.86263672 32.25317383 -8.20263672 32.25317383 C-9.59054298 24.4338091 -10.39688242 16.87277352 -10.39013672 8.94067383 C-10.39078125 8.19374268 -10.39142578 7.44681152 -10.39208984 6.67724609 C-10.30939758 -1.40498336 -7.44181266 0.01136822 0 0 Z " fill="#BD395D" transform="translate(250.20263671875,135.746826171875)"/>
<path d="M0 0 C4.95 0 9.9 0 15 0 C15 0.33 15 0.66 15 1 C11.04 1 7.08 1 3 1 C3 2.98 3 4.96 3 7 C1 9 1 9 -1.3828125 9.1953125 C-2.28773437 9.17210937 -3.19265625 9.14890625 -4.125 9.125 C-5.49011719 9.09792969 -5.49011719 9.09792969 -6.8828125 9.0703125 C-7.58148438 9.04710937 -8.28015625 9.02390625 -9 9 C-9.33 8.34 -9.66 7.68 -10 7 C-9.21625 6.938125 -8.4325 6.87625 -7.625 6.8125 C-6.75875 6.544375 -5.8925 6.27625 -5 6 C-3.62533375 3.52363988 -3.62533375 3.52363988 -3 1 C-2.67 1.66 -2.34 2.32 -2 3 C-1.34 3 -0.68 3 0 3 C0 2.01 0 1.02 0 0 Z " fill="#C0324D" transform="translate(116,262)"/>
<path d="M0 0 C0.89332031 0.13921875 1.78664062 0.2784375 2.70703125 0.421875 C3.60808594 0.55078125 4.50914062 0.6796875 5.4375 0.8125 C6.12457031 0.93109375 6.81164062 1.0496875 7.51953125 1.171875 C7.51953125 1.831875 7.51953125 2.491875 7.51953125 3.171875 C3.88953125 3.171875 0.25953125 3.171875 -3.48046875 3.171875 C-3.50538191 7.99161411 -3.52342873 12.81131485 -3.53540039 17.63110352 C-3.54039678 19.26717788 -3.54719614 20.90324785 -3.5559082 22.53930664 C-3.64364177 34.88932036 -3.64364177 34.88932036 -2.48046875 47.171875 C-3.14046875 47.171875 -3.80046875 47.171875 -4.48046875 47.171875 C-5.32880293 41.99474141 -5.65343859 36.9959373 -5.68359375 31.75390625 C-5.68929382 30.97423996 -5.6949939 30.19457367 -5.7008667 29.39128113 C-5.7102539 27.75508966 -5.71682546 26.11887982 -5.72070312 24.48266602 C-5.73048212 21.98095344 -5.76159247 19.48003854 -5.79296875 16.97851562 C-5.7994932 15.38281734 -5.80474586 13.78711324 -5.80859375 12.19140625 C-5.82094055 11.44655472 -5.83328735 10.70170319 -5.8460083 9.9342804 C-5.83227051 6.73980653 -5.66480232 4.50807861 -4.11499023 1.68139648 C-2.48046875 0.171875 -2.48046875 0.171875 0 0 Z " fill="#DD6293" transform="translate(151.48046875,137.828125)"/>
<path d="M0 0 C0.99 0.495 0.99 0.495 2 1 C5.14129347 11.42991558 4.62709546 23.21305411 5 34 C5.61875 34.144375 6.2375 34.28875 6.875 34.4375 C9 35 9 35 11 36 C11 36.99 11 37.98 11 39 C8.50638429 37.79618552 6.31856917 36.54571278 4 35 C1.81399563 27.60885934 1.39225424 20.09879843 0.875 12.4375 C0.78863281 11.23802734 0.70226563 10.03855469 0.61328125 8.80273438 C0.40288376 5.86885832 0.19860511 2.93469389 0 0 Z " fill="#BD385C" transform="translate(63,232)"/>
<path d="M0 0 C0.33 0 0.66 0 1 0 C1.99 3.96 2.98 7.92 4 12 C12.92034681 14.2300867 22.20451582 13.42634046 31 11 C30.67 11.99 30.34 12.98 30 14 C23.48580296 15.83314088 17.16176109 16.19281667 10.4375 16.1875 C9.62748535 16.18814453 8.8174707 16.18878906 7.98291016 16.18945312 C2.13480959 16.13480959 2.13480959 16.13480959 1 15 C0.06880211 9.9301448 -0.08997924 5.12881696 0 0 Z " fill="#C03A5E" transform="translate(76,176)"/>
<path d="M0 0 C0.66 0.33 1.32 0.66 2 1 C1.98839844 1.84304687 1.97679687 2.68609375 1.96484375 3.5546875 C1.95582031 4.65039062 1.94679687 5.74609375 1.9375 6.875 C1.92589844 7.96554688 1.91429687 9.05609375 1.90234375 10.1796875 C1.80255697 12.95177546 1.80255697 12.95177546 3 15 C3.15222973 16.66565749 3.24917215 18.33656496 3.31640625 20.0078125 C3.35830078 20.99394531 3.40019531 21.98007813 3.44335938 22.99609375 C3.48267578 24.02863281 3.52199219 25.06117188 3.5625 26.125 C3.60568359 27.16527344 3.64886719 28.20554688 3.69335938 29.27734375 C3.7996288 31.85142528 3.90166583 34.42560508 4 37 C2.22309044 33.87505848 1.58737374 31.19754328 1.1484375 27.640625 C1.01953125 26.60679687 0.890625 25.57296875 0.7578125 24.5078125 C0.63148438 23.43273437 0.50515625 22.35765625 0.375 21.25 C0.17390625 19.66058594 0.17390625 19.66058594 -0.03125 18.0390625 C-0.72620268 12.32343125 -1.25925561 6.7582036 -1 1 C-0.67 0.67 -0.34 0.34 0 0 Z " fill="#C13C63" transform="translate(187,137)"/>
<path d="M0 0 C3.63 0 7.26 0 11 0 C11.81235475 4.06177373 12.10732417 7.23350092 12.0625 11.3125 C12.05347656 12.38113281 12.04445312 13.44976562 12.03515625 14.55078125 C12.02355469 15.35902344 12.01195312 16.16726562 12 17 C9.31907309 14.31907309 9.61329743 12.60832637 9.375 8.875 C9.26285156 7.23144531 9.26285156 7.23144531 9.1484375 5.5546875 C9.09945312 4.71164063 9.05046875 3.86859375 9 3 C6.36 2.67 3.72 2.34 1 2 C1 6.62 1 11.24 1 16 C0.67 16 0.34 16 0 16 C0 10.72 0 5.44 0 0 Z " fill="#BF3D66" transform="translate(171,139)"/>
<path d="M0 0 C1.89957257 6.36995679 -1.75236161 11.78152931 -4.625 17.375 C-5.11226562 18.33599609 -5.11226562 18.33599609 -5.609375 19.31640625 C-6.40257407 20.87947501 -7.20077031 22.44000622 -8 24 C-8.33 24 -8.66 24 -9 24 C-9.6188704 17.52764711 -7.67213085 13.62087343 -4.5 8.0625 C-4.07074219 7.28326172 -3.64148437 6.50402344 -3.19921875 5.70117188 C-2.14590069 3.79349583 -1.07472631 1.8956978 0 0 Z " fill="#B36593" transform="translate(46,122)"/>
<path d="M0 0 C0.33 0 0.66 0 1 0 C1.75741925 9.02140429 2.13534286 17.94706663 2 27 C-0.97 26.67 -3.94 26.34 -7 26 C-5.68 25.34 -4.36 24.68 -3 24 C-3.66 20.7 -4.32 17.4 -5 14 C-4.34 14 -3.68 14 -3 14 C-2.34 17.3 -1.68 20.6 -1 24 C-0.34 24 0.32 24 1 24 C0.83628906 23.20335937 0.67257813 22.40671875 0.50390625 21.5859375 C-0.10791538 17.23204401 -0.10799591 13.0136058 -0.0625 8.625 C-0.05798828 7.79355469 -0.05347656 6.96210938 -0.04882812 6.10546875 C-0.03713164 4.07028103 -0.01919935 2.03513077 0 0 Z " fill="#DF6A9B" transform="translate(187,244)"/>
<path d="M0 0 C3.63 0 7.26 0 11 0 C10.67 0.66 10.34 1.32 10 2 C7.69 1.67 5.38 1.34 3 1 C1.37157445 8.7508081 0.61851236 16.2784215 0.375 24.1875 C0.33632812 25.23486328 0.29765625 26.28222656 0.2578125 27.36132812 C0.16480563 29.90739113 0.07896716 32.45346963 0 35 C-0.33 35 -0.66 35 -1 35 C-1.02468646 30.33691801 -1.04285349 25.67387392 -1.05493164 21.01074219 C-1.05996588 19.42382139 -1.06679369 17.83690523 -1.07543945 16.25 C-1.08754482 13.97134251 -1.09323733 11.69274624 -1.09765625 9.4140625 C-1.10281754 8.70255035 -1.10797882 7.99103821 -1.11329651 7.25796509 C-1.11387171 2.22774341 -1.11387171 2.22774341 0 0 Z " fill="#BB3559" transform="translate(148,141)"/>
<path d="M0 0 C0.99 0 1.98 0 3 0 C4.75 6.5625 4.75 6.5625 5.28808594 8.59130859 C6.22517025 12.11978511 7.17513178 15.64364835 8.15625 19.16015625 C8.33961914 19.82523193 8.52298828 20.49030762 8.71191406 21.17553711 C9.22582173 23.03740315 9.74557996 24.89765138 10.265625 26.7578125 C10.92097693 29.65112153 11.15570326 32.05275977 11 35 C8.8489943 31.2035245 7.75438489 27.10543542 6.5625 22.9375 C6.34368164 22.1832373 6.12486328 21.42897461 5.89941406 20.65185547 C4.40613293 15.48272056 2.96249678 10.30100536 1.578125 5.1015625 C1.1059914 3.38529306 0.5628935 1.6886805 0 0 Z " fill="#E36CA2" transform="translate(130,213)"/>
<path d="M0 0 C0.99 0 1.98 0 3 0 C4.7041678 5.15946865 5.22225605 9.4425333 5.125 14.9375 C5.11597656 15.62134766 5.10695312 16.30519531 5.09765625 17.00976562 C5.07438958 18.67333287 5.03853167 20.33671631 5 22 C8.3 22 11.6 22 15 22 C11.91111478 24.05925681 11.29064073 24.2390374 7.8125 24.125 C6.554375 24.08375 5.29625 24.0425 4 24 C3.91435791 23.34402832 3.82871582 22.68805664 3.74047852 22.01220703 C3.35153499 19.049303 2.95708727 16.08715747 2.5625 13.125 C2.42779297 12.09246094 2.29308594 11.05992187 2.15429688 9.99609375 C2.02216797 9.00996094 1.89003906 8.02382812 1.75390625 7.0078125 C1.63345947 6.09660645 1.5130127 5.18540039 1.38891602 4.24658203 C1.10637049 1.97266576 1.10637049 1.97266576 0 0 Z " fill="#BE395C" transform="translate(222,178)"/>
<path d="M0 0 C1.65 0.66 3.3 1.32 5 2 C0.80246736 5.71996905 -3.6408465 7.93855565 -8.6875 10.25 C-9.84475586 10.79527344 -9.84475586 10.79527344 -11.02539062 11.3515625 C-16.72550517 14 -16.72550517 14 -19 14 C-19 13.34 -19 12.68 -19 12 C-15.63316085 9.56839395 -14.26649636 9 -10 9 C-10 8.34 -10 7.68 -10 7 C-9.16855469 6.74476563 -9.16855469 6.74476563 -8.3203125 6.484375 C-3.74877023 5.09174014 -3.74877023 5.09174014 -0.5 1.8125 C-0.335 1.214375 -0.17 0.61625 0 0 Z " fill="#B36795" transform="translate(249,325)"/>
<path d="M0 0 C0.66 0 1.32 0 2 0 C0.68012574 4.55525834 -1.1306902 8.03528727 -3.8125 11.9375 C-4.52019531 12.97261719 -5.22789062 14.00773437 -5.95703125 15.07421875 C-8.28043446 18.40161646 -10.61301258 21.7178923 -13 25 C-13.33 23.68 -13.66 22.36 -14 21 C-13.34 21 -12.68 21 -12 21 C-11.87625 20.401875 -11.7525 19.80375 -11.625 19.1875 C-11 17 -11 17 -9 14 C-8.34 14 -7.68 14 -7 14 C-7 12.35 -7 10.7 -7 9 C-6.34 9 -5.68 9 -5 9 C-4.01 7.02 -3.02 5.04 -2 3 C-1.34 3 -0.68 3 0 3 C0 2.01 0 1.02 0 0 Z " fill="#B06693" transform="translate(307,268)"/>
<path d="M0 0 C0.33 0 0.66 0 1 0 C1.02505615 0.71019287 1.0501123 1.42038574 1.07592773 2.15209961 C1.19298472 5.41403464 1.31520746 8.67575722 1.4375 11.9375 C1.47681641 13.05447266 1.51613281 14.17144531 1.55664062 15.32226562 C1.8048606 27.33534725 1.8048606 27.33534725 4.5625 38.9375 C6 42.83732057 6 42.83732057 6 45 C5.34 45 4.68 45 4 45 C3.5060661 43.71390795 3.03097231 42.42058372 2.5625 41.125 C2.29566406 40.40570313 2.02882813 39.68640625 1.75390625 38.9453125 C-0.46465553 30.27797789 -0.12685998 21.25667739 -0.0625 12.375 C-0.05798828 11.18003906 -0.05347656 9.98507813 -0.04882812 8.75390625 C-0.03715603 5.83588353 -0.02078326 2.91796963 0 0 Z " fill="#BC3A5F" transform="translate(63,150)"/>
<path d="M0 0 C0.66 0 1.32 0 2 0 C2 0.66 2 1.32 2 2 C2.66 2 3.32 2 4 2 C4 2.99 4 3.98 4 5 C4.99 5 5.98 5 7 5 C7 5.99 7 6.98 7 8 C7.66 8 8.32 8 9 8 C9.33 9.65 9.66 11.3 10 13 C7.69 12.67 5.38 12.34 3 12 C2.814375 11.13375 2.814375 11.13375 2.625 10.25 C2.08157207 7.98002631 2.08157207 7.98002631 0.9375 6 C0 4 0 4 0 0 Z " fill="#E575B8" transform="translate(75,221)"/>
<path d="M0 0 C1.43836751 0.11458693 2.87570966 0.24209116 4.3125 0.375 C5.51326172 0.47941406 5.51326172 0.47941406 6.73828125 0.5859375 C9 1 9 1 12 3 C11.34215037 6.29680965 10.10579427 8.84117922 8.4375 11.75 C7.98246094 12.54921875 7.52742187 13.3484375 7.05859375 14.171875 C6.70925781 14.77515625 6.35992187 15.3784375 6 16 C5.67 14.68 5.34 13.36 5 12 C5.66 12 6.32 12 7 12 C7 9.36 7 6.72 7 4 C6.01 4 5.02 4 4 4 C4 3.01 4 2.02 4 1 C2.35 1.33 0.7 1.66 -1 2 C-0.67 1.34 -0.34 0.68 0 0 Z " fill="#BB3959" transform="translate(171,208)"/>
<path d="M0 0 C0.33 0 0.66 0 1 0 C1.51156946 3.45672201 2.00706532 6.91557552 2.5 10.375 C2.64308594 11.34050781 2.78617188 12.30601562 2.93359375 13.30078125 C3.81865094 19.58047273 4.18794674 25.66027798 4 32 C3.34 32 2.68 32 2 32 C1.67 27.38 1.34 22.76 1 18 C0.67 18 0.34 18 0 18 C0 12.06 0 6.12 0 0 Z " fill="#E1699E" transform="translate(61,221)"/>
<path d="M0 0 C8.22104485 1.41742153 15.45299175 4.58613282 23 8 C23 8.33 23 8.66 23 9 C21.35 9 19.7 9 18 9 C18 8.34 18 7.68 18 7 C17.071875 6.896875 16.14375 6.79375 15.1875 6.6875 C10.00500168 5.96237678 5.01981384 4.44330995 0 3 C0 2.01 0 1.02 0 0 Z " fill="#B06593" transform="translate(218,54)"/>
<path d="M0 0 C-2.88573413 1.92382275 -4.06561591 2.35662848 -7.3515625 2.8515625 C-8.20363281 2.98046875 -9.05570313 3.109375 -9.93359375 3.2421875 C-10.82175781 3.36851562 -11.70992187 3.49484375 -12.625 3.625 C-13.48996094 3.7590625 -14.35492188 3.893125 -15.24609375 4.03125 C-20.89002194 4.86049282 -26.29678773 5.1272522 -32 5 C-32 4.67 -32 4.34 -32 4 C-28.54448692 3.31814594 -25.08524131 2.65740143 -21.625 2 C-20.65949219 1.80921875 -19.69398438 1.6184375 -18.69921875 1.421875 C-12.38857714 0.23598262 -6.41769876 -0.25367791 0 0 Z " fill="#AD6491" transform="translate(213,344)"/>
<path d="M0 0 C0.99 0 1.98 0 3 0 C4.82421875 2.5546875 4.82421875 2.5546875 6.6875 5.875 C7.31011719 6.96554687 7.93273437 8.05609375 8.57421875 9.1796875 C10 12 10 12 10 14 C9.01 14 8.02 14 7 14 C6.67 11.69 6.34 9.38 6 7 C5.34 7 4.68 7 4 7 C3.67 6.01 3.34 5.02 3 4 C2.67 7.96 2.34 11.92 2 16 C1.67 16 1.34 16 1 16 C0.14701624 12.32612505 -0.10789471 8.9552607 -0.0625 5.1875 C-0.05347656 4.21167969 -0.04445312 3.23585938 -0.03515625 2.23046875 C-0.02355469 1.49441406 -0.01195312 0.75835937 0 0 Z " fill="#E46BA1" transform="translate(235,254)"/>
<path d="M0 0 C0.66 0.33 1.32 0.66 2 1 C2.41064453 2.94946289 2.41064453 2.94946289 2.6328125 5.47265625 C2.71660156 6.37177734 2.80039063 7.27089844 2.88671875 8.19726562 C2.96535156 9.14279297 3.04398438 10.08832031 3.125 11.0625 C3.21136719 12.01189453 3.29773438 12.96128906 3.38671875 13.93945312 C3.59954368 16.29235092 3.80357031 18.64568595 4 21 C3.34 21 2.68 21 2 21 C1.67 18.69 1.34 16.38 1 14 C0.01 13.67 -0.98 13.34 -2 13 C-1.85851011 11.3954444 -1.71164314 9.79136233 -1.5625 8.1875 C-1.48128906 7.29417969 -1.40007812 6.40085938 -1.31640625 5.48046875 C-1 3 -1 3 0 0 Z " fill="#E46CA3" transform="translate(222,179)"/>
<path d="M0 0 C0.33 0 0.66 0 1 0 C1.05821935 3.89577024 1.0936703 7.79142802 1.125 11.6875 C1.14175781 12.79029297 1.15851563 13.89308594 1.17578125 15.02929688 C1.18222656 16.09599609 1.18867188 17.16269531 1.1953125 18.26171875 C1.20578613 19.24100342 1.21625977 20.22028809 1.22705078 21.22924805 C0.98597685 24.17112772 0.23055542 26.33237726 -1 29 C-1.33 29 -1.66 29 -2 29 C-1.86070975 25.10390391 -1.71242069 21.20820038 -1.5625 17.3125 C-1.52318359 16.20970703 -1.48386719 15.10691406 -1.44335938 13.97070312 C-1.40146484 12.90400391 -1.35957031 11.83730469 -1.31640625 10.73828125 C-1.27974854 9.75899658 -1.24309082 8.77971191 -1.20532227 7.77075195 C-1.00780667 5.10534823 -0.58426967 2.60530212 0 0 Z " fill="#C34068" transform="translate(184,162)"/>
<path d="M0 0 C0.33 0 0.66 0 1 0 C1.06058594 0.91523438 1.12117187 1.83046875 1.18359375 2.7734375 C1.26738281 3.96195313 1.35117188 5.15046875 1.4375 6.375 C1.51871094 7.55835938 1.59992188 8.74171875 1.68359375 9.9609375 C1.81084936 12.91518901 1.81084936 12.91518901 3 15 C3.039992 16.99960012 3.04346799 19.00047242 3 21 C2.34 21 1.68 21 1 21 C0.34 17.7 -0.32 14.4 -1 11 C-1.66 11 -2.32 11 -3 11 C-2.44894091 7.0507432 -1.61064629 3.65079826 0 0 Z " fill="#E47AB9" transform="translate(185,247)"/>
<path d="M0 0 C0.99 0.33 1.98 0.66 3 1 C3.94921875 3.50390625 3.94921875 3.50390625 4.6875 6.5625 C4.93886719 7.57441406 5.19023437 8.58632813 5.44921875 9.62890625 C5.63097656 10.41136719 5.81273437 11.19382812 6 12 C5.01 12 4.02 12 3 12 C2.87625 10.865625 2.7525 9.73125 2.625 8.5625 C2.41875 7.386875 2.2125 6.21125 2 5 C1.34 4.67 0.68 4.34 0 4 C0.33 8.95 0.66 13.9 1 19 C-2.20235277 14.19647084 -2.50021201 9.6768247 -2 4 C-1 1.5 -1 1.5 0 0 Z " fill="#E1689C" transform="translate(163,248)"/>
<path d="M0 0 C1.9375 0.3125 1.9375 0.3125 4 1 C4.33 1.99 4.66 2.98 5 4 C6.32121793 4.69036613 7.65753688 5.35191436 9 6 C10.78918602 7.45303592 12.53728976 8.9575592 14.25 10.5 C15.14203125 11.2940625 16.0340625 12.088125 16.953125 12.90625 C19 15 19 15 19 17 C14.97956788 15.353076 12.06933966 12.54548852 8.9375 9.625 C8.40833984 9.14289063 7.87917969 8.66078125 7.33398438 8.1640625 C4.58089059 5.62168229 2.11986393 3.09544145 0 0 Z " fill="#A6648C" transform="translate(65,300)"/>
<path d="M0 0 C2.33294775 -0.04241723 4.66702567 -0.04092937 7 0 C8 1 8 1 8.1328125 3.46875 C8.13023437 4.4690625 8.12765625 5.469375 8.125 6.5 C8.12757813 7.5003125 8.13015625 8.500625 8.1328125 9.53125 C8 12 8 12 7 13 C4.81360547 13.07258946 2.62499611 13.08373783 0.4375 13.0625 C-1.35880859 13.04896484 -1.35880859 13.04896484 -3.19140625 13.03515625 C-4.11824219 13.02355469 -5.04507813 13.01195312 -6 13 C-6 12.67 -6 12.34 -6 12 C-0.06 11.505 -0.06 11.505 6 11 C5.67 7.7 5.34 4.4 5 1 C3.35 1 1.7 1 0 1 C0 0.67 0 0.34 0 0 Z " fill="#BD3B61" transform="translate(206,240)"/>
<path d="M0 0 C-0.57621094 0.16886719 -1.15242187 0.33773437 -1.74609375 0.51171875 C-5.21412144 2.8016989 -6.35237584 6.11217354 -8.0625 9.8125 C-8.73907863 11.23653692 -9.41742731 12.65973438 -10.09765625 14.08203125 C-10.41879395 14.75443848 -10.73993164 15.4268457 -11.07080078 16.11962891 C-12.24985243 18.50561309 -13.53067984 20.78075975 -15 23 C-15.33 23 -15.66 23 -16 23 C-16 21.02 -16 19.04 -16 17 C-15.01 17 -14.02 17 -13 17 C-12.71125 15.88625 -12.4225 14.7725 -12.125 13.625 C-11 10 -11 10 -9 8 C-8.67 6.824375 -8.34 5.64875 -8 4.4375 C-7.505 2.7359375 -7.505 2.7359375 -7 1 C-4.53721199 -0.231394 -2.7204945 -0.07159196 0 0 Z " fill="#E46BA1" transform="translate(175,207)"/>
<path d="M0 0 C0.66 0 1.32 0 2 0 C3.56390977 7.09774436 3.56390977 7.09774436 1.125 11 C-3.03167969 13.660275 -6.20116121 13.47047439 -11 13 C-11 12.67 -11 12.34 -11 12 C-9.3603125 11.62875 -9.3603125 11.62875 -7.6875 11.25 C-3.85916036 9.95225775 -2.76340368 9.52680737 -1 6 C-0.27954633 2.84881675 -0.27954633 2.84881675 0 0 Z " fill="#BE3A5C" transform="translate(267,158)"/>
<path d="M0 0 C-0.66 1.98 -1.32 3.96 -2 6 C-2.86625 5.9175 -3.7325 5.835 -4.625 5.75 C-8.76588825 6.05673246 -10.60944496 7.71506073 -14 10 C-16.1796875 9.62109375 -16.1796875 9.62109375 -18 9 C-15.70870707 7.68684387 -13.4169845 6.37444807 -11.125 5.0625 C-10.47402344 4.68931641 -9.82304688 4.31613281 -9.15234375 3.93164062 C-2.2808277 0 -2.2808277 0 0 0 Z " fill="#AF6692" transform="translate(113,62)"/>
<path d="M0 0 C0.33 0 0.66 0 1 0 C1 3.3 1 6.6 1 10 C-1.52475462 11.26237731 -3.31200466 11.09856404 -6.125 11.0625 C-7.03507812 11.05347656 -7.94515625 11.04445312 -8.8828125 11.03515625 C-9.58148438 11.02355469 -10.28015625 11.01195312 -11 11 C-11.268125 10.05125 -11.53625 9.1025 -11.8125 8.125 C-12.74986588 4.74732727 -12.74986588 4.74732727 -16 3 C-14.00045254 2.95745644 -11.99958364 2.95919217 -10 3 C-9 4 -9 4 -8.9375 6.5625 C-8.958125 7.366875 -8.97875 8.17125 -9 9 C-6.03 9 -3.06 9 0 9 C0 6.03 0 3.06 0 0 Z " fill="#BD395D" transform="translate(97,146)"/>
<path d="M0 0 C3.14822808 2.93927489 5.45457845 5.9856778 7.75 9.625 C8.36359375 10.58664063 8.9771875 11.54828125 9.609375 12.5390625 C11 15 11 15 11 17 C9.68 16.34 8.36 15.68 7 15 C7 14.34 7 13.68 7 13 C6.01 12.67 5.02 12.34 4 12 C2.93347808 9.69631264 1.93578995 7.35981813 1 5 C0.34 4.01 -0.32 3.02 -1 2 C-0.67 1.34 -0.34 0.68 0 0 Z " fill="#AA6490" transform="translate(294,105)"/>
<path d="M0 0 C0.66 0.33 1.32 0.66 2 1 C1.40734427 4.42893671 0.51519427 7.37798523 -0.875 10.5625 C-3.21752452 16.23072539 -4.64588518 22.02958467 -6 28 C-6.33 28 -6.66 28 -7 28 C-7.32714057 19.00363439 -6.25972146 12.46541111 -1 5 C-0.21784412 2.2717496 -0.21784412 2.2717496 0 0 Z " fill="#BC385B" transform="translate(289,212)"/>
<path d="M0 0 C0.99 0 1.98 0 3 0 C6.6773062 3.76486111 8.00070616 5.86077452 9 11 C10.96758273 12.36020151 10.96758273 12.36020151 13 13 C13 13.99 13 14.98 13 16 C13.66 16.33 14.32 16.66 15 17 C14.01 17 13.02 17 12 17 C10.55786133 15.54711914 10.55786133 15.54711914 9.08203125 13.53515625 C8.55029297 12.81779297 8.01855469 12.10042969 7.47070312 11.36132812 C6.92349609 10.60271484 6.37628906 9.84410156 5.8125 9.0625 C4.97428711 7.93038086 4.97428711 7.93038086 4.11914062 6.77539062 C0 1.16752518 0 1.16752518 0 0 Z " fill="#B46A95" transform="translate(51,282)"/>
<path d="M0 0 C0.56074219 0.14308594 1.12148437 0.28617188 1.69921875 0.43359375 C8.178266 2.02860538 14.30826126 3.29094516 21 3 C16.548454 5.96769733 13.31570107 6.56318766 8 6 C3.9773783 4.43564712 2.40850891 3.61276337 0 0 Z " fill="#C03B60" transform="translate(154,193)"/>
<path d="M0 0 C2.375 0.3125 2.375 0.3125 5 1 C7.31861878 4.47792817 7.24272927 5.90299252 7.1875 10 C7.18105469 11.051875 7.17460937 12.10375 7.16796875 13.1875 C7 16 7 16 6 19 C5.34 19 4.68 19 4 19 C4.04640625 18.21496094 4.0928125 17.42992187 4.140625 16.62109375 C4.37668851 9.74995939 4.07404355 5.60180988 0 0 Z " fill="#E36EA2" transform="translate(279,176)"/>
<path d="M0 0 C3.62276315 1.3255581 6.63505348 2.94346955 9.8125 5.125 C10.60269531 5.66382812 11.39289063 6.20265625 12.20703125 6.7578125 C12.79871094 7.16773437 13.39039063 7.57765625 14 8 C13.67 8.66 13.34 9.32 13 10 C9.846502 9.29922267 6.91038896 8.4158649 4 7 C3.67 6.01 3.34 5.02 3 4 C2.01 3.67 1.02 3.34 0 3 C0 2.01 0 1.02 0 0 Z " fill="#B66998" transform="translate(252,69)"/>
<path d="M0 0 C0.33 0 0.66 0 1 0 C1.84681133 5.08086796 2.09038099 9.84828377 2 15 C1.67 15 1.34 15 1 15 C0.34 13.02 -0.32 11.04 -1 9 C-1.433125 10.134375 -1.86625 11.26875 -2.3125 12.4375 C-2.869375 13.613125 -3.42625 14.78875 -4 16 C-4.99 16.33 -5.98 16.66 -7 17 C-5.8979855 13.96946013 -4.59471249 11.25398584 -2.9375 8.5 C-1.28585924 5.69405269 -0.39647436 3.27091346 0 0 Z " fill="#E46CA0" transform="translate(183,209)"/>
<path d="M0 0 C0.99 0.33 1.98 0.66 3 1 C3.33 2.98 3.66 4.96 4 7 C5.97536745 6.65213292 5.97536745 6.65213292 8 6 C8.33 5.34 8.66 4.68 9 4 C10.66500443 3.65846063 12.33178677 3.32550502 14 3 C14.66 2.34 15.32 1.68 16 1 C16 2.32 16 3.64 16 5 C9.27803449 8.88639693 9.27803449 8.88639693 5.1875 9.25 C1.65645424 7.23225957 1.05703751 3.77267858 0 0 Z " fill="#BC375B" transform="translate(129,191)"/>
<path d="M0 0 C0.90105469 0.02707031 1.80210937 0.05414063 2.73046875 0.08203125 C3.76107422 0.13423828 3.76107422 0.13423828 4.8125 0.1875 C4.8125 0.5175 4.8125 0.8475 4.8125 1.1875 C3.87277344 1.31705078 3.87277344 1.31705078 2.9140625 1.44921875 C-2.05541119 2.12444917 -2.05541119 2.12444917 -5.6875 5.1875 C-6.40717737 9.50556422 -6.86543191 13.82262981 -7.1875 18.1875 C-7.8475 18.1875 -8.5075 18.1875 -9.1875 18.1875 C-9.10049202 15.74827639 -8.99363998 13.31271586 -8.875 10.875 C-8.85244141 10.18470703 -8.82988281 9.49441406 -8.80664062 8.78320312 C-8.65456091 5.92133941 -8.49563525 3.68525694 -6.96875 1.21875 C-4.54174241 -0.18635966 -2.78483177 -0.10849994 0 0 Z " fill="#C24068" transform="translate(227.1875,135.8125)"/>
<path d="M0 0 C0.99 0.33 1.98 0.66 3 1 C3 1.66 3 2.32 3 3 C3.66 3 4.32 3 5 3 C6.04644066 4.63790712 7.0398183 6.31008021 8 8 C8.98244845 9.34631825 9.97676564 10.68441297 11 12 C10.34 12 9.68 12 9 12 C9 15.3 9 18.6 9 22 C8.67 22 8.34 22 8 22 C7.979375 20.7625 7.95875 19.525 7.9375 18.25 C7.34864212 12.47183206 4.53442457 8.24801662 1.49609375 3.40625 C0 1 0 1 0 0 Z " fill="#E4689C" transform="translate(246,216)"/>
<path d="M0 0 C0.99 0 1.98 0 3 0 C2.01 3.3 1.02 6.6 0 10 C-3.65316671 8.75023244 -4.78065836 8.32901247 -7 5 C-5.824375 4.87625 -5.824375 4.87625 -4.625 4.75 C-1.85250896 4.27193661 -1.85250896 4.27193661 -0.6875 1.9375 C-0.460625 1.298125 -0.23375 0.65875 0 0 Z " fill="#E570A8" transform="translate(274,214)"/>
<path d="M0 0 C0.33 0 0.66 0 1 0 C1.495 8.415 1.495 8.415 2 17 C-1.18824568 18.59412284 -4.62896662 18.10174735 -8.125 18.0625 C-8.87910156 18.05798828 -9.63320312 18.05347656 -10.41015625 18.04882812 C-12.27347127 18.03703499 -14.13674555 18.01909942 -16 18 C-16 17.67 -16 17.34 -16 17 C-15.00097656 16.93941406 -14.00195312 16.87882812 -12.97265625 16.81640625 C-11.68230469 16.73261719 -10.39195313 16.64882812 -9.0625 16.5625 C-7.77472656 16.48128906 -6.48695312 16.40007812 -5.16015625 16.31640625 C-2.13976043 16.35080812 -2.13976043 16.35080812 -1 15 C-0.76346477 12.47403741 -0.57826308 9.96892793 -0.4375 7.4375 C-0.39431641 6.72658203 -0.35113281 6.01566406 -0.30664062 5.28320312 C-0.20028223 3.52238088 -0.09961154 1.7612168 0 0 Z " fill="#BA3B63" transform="translate(120,183)"/>
<path d="M0 0 C-5.81792473 3.87861649 -13.16247095 4.25408774 -20 5 C-15.5152731 -1.72709035 -7.26701117 -0.21166052 0 0 Z " fill="#BC3957" transform="translate(88,138)"/>
<path d="M0 0 C4.82732488 -0.27793689 8.27347508 0.59057878 12.75 2.375 C14.44382813 3.03628906 14.44382813 3.03628906 16.171875 3.7109375 C19 5 19 5 21 7 C13.41045469 6.55355616 6.98360263 3.88499438 0 1 C0 0.67 0 0.34 0 0 Z " fill="#AB638F" transform="translate(118,337)"/>
<path d="M0 0 C5.55548012 2.45094711 7.95659662 7.01132848 11 12 C9.0625 11.6875 9.0625 11.6875 7 11 C6.67 10.01 6.34 9.02 6 8 C5.01 8.99 4.02 9.98 3 11 C2.67 8.03 2.34 5.06 2 2 C1.34 2 0.68 2 0 2 C0 1.34 0 0.68 0 0 Z " fill="#BF3856" transform="translate(240,212)"/>
<path d="M0 0 C2.10388569 -0.05402274 4.20816714 -0.09280256 6.3125 -0.125 C8.07013672 -0.15980469 8.07013672 -0.15980469 9.86328125 -0.1953125 C13 0 13 0 16 2 C18.0492094 2.45139459 18.0492094 2.45139459 20.1875 2.625 C21.445625 2.74875 22.70375 2.8725 24 3 C24 3.33 24 3.66 24 4 C15.49077472 4.40735653 8.1609778 3.43092956 0 1 C0 0.67 0 0.34 0 0 Z " fill="#C24268" transform="translate(74,198)"/>
<path d="M0 0 C1.67542976 0.28604898 3.34385343 0.61781233 5 1 C5 2.98 5 4.96 5 7 C2.69 6.67 0.38 6.34 -2 6 C-1.125 1.125 -1.125 1.125 0 0 Z " fill="#E476B8" transform="translate(260,184)"/>
<path d="M0 0 C4.23989734 2.24465153 8.36255768 4.9119644 11 9 C10.875 12.875 10.875 12.875 10 16 C9.67 16 9.34 16 9 16 C9 14.02 9 12.04 9 10 C8.34 10 7.68 10 7 10 C7 9.34 7 8.68 7 8 C6.34 8 5.68 8 5 8 C5 7.01 5 6.02 5 5 C4.01 5 3.02 5 2 5 C2 4.01 2 3.02 2 2 C1.34 2 0.68 2 0 2 C0 1.34 0 0.68 0 0 Z " fill="#E36CA1" transform="translate(77,221)"/>
<path d="M0 0 C1.93166016 0.01740234 1.93166016 0.01740234 3.90234375 0.03515625 C5.19269531 0.04417969 6.48304687 0.05320313 7.8125 0.0625 C8.81152344 0.07410156 9.81054688 0.08570313 10.83984375 0.09765625 C10.83984375 0.42765625 10.83984375 0.75765625 10.83984375 1.09765625 C7.20984375 1.42765625 3.57984375 1.75765625 -0.16015625 2.09765625 C-1.75305762 6.07990968 -2.45898782 8.33305086 -2.78515625 12.41015625 C-2.85992187 13.29316406 -2.9346875 14.17617187 -3.01171875 15.0859375 C-3.08519531 16.08173828 -3.08519531 16.08173828 -3.16015625 17.09765625 C-3.49015625 17.09765625 -3.82015625 17.09765625 -4.16015625 17.09765625 C-4.18700304 14.45175611 -4.20691982 11.80612529 -4.22265625 9.16015625 C-4.23103516 8.40541016 -4.23941406 7.65066406 -4.24804688 6.87304688 C-4.25668066 4.94771312 -4.21239958 3.02230044 -4.16015625 1.09765625 C-3.16015625 0.09765625 -3.16015625 0.09765625 0 0 Z " fill="#C3426B" transform="translate(108.16015625,136.90234375)"/>
<path d="M0 0 C0.33 0 0.66 0 1 0 C2.42625566 7.41143564 3.30071865 14.44862068 3 22 C2.01 21.67 1.02 21.34 0 21 C0 14.07 0 7.14 0 0 Z " fill="#BF3C5F" transform="translate(73,220)"/>
<path d="M0 0 C9.41002278 0.96355353 9.41002278 0.96355353 14 2 C13.67 3.32 13.34 4.64 13 6 C3.40546697 3.10933941 3.40546697 3.10933941 0 0 Z " fill="#B86A99" transform="translate(105,331)"/>
<path d="M0 0 C0.33 0 0.66 0 1 0 C1.1875 3.375 1.1875 3.375 1 7 C-2.45214853 9.30143236 -3.23479324 9.13833854 -7.1875 8.625 C-8.08855469 8.51414062 -8.98960938 8.40328125 -9.91796875 8.2890625 C-10.60503906 8.19367188 -11.29210937 8.09828125 -12 8 C-12 7.34 -12 6.68 -12 6 C-8.7 5.67 -5.4 5.34 -2 5 C-1.34 3.35 -0.68 1.7 0 0 Z " fill="#BC3A5B" transform="translate(92,257)"/>
<path d="M0 0 C1.49341969 2.98683937 0.40648676 4.95160978 -0.4375 8.125 C-0.72496094 9.22070312 -1.01242188 10.31640625 -1.30859375 11.4453125 C-1.65083984 12.70988281 -1.65083984 12.70988281 -2 14 C-4.31 14.33 -6.62 14.66 -9 15 C-6 13 -6 13 -4 12 C-3.77110324 10.00532821 -3.54530256 8.01011162 -3.3515625 6.01171875 C-2.89709103 3.411132 -1.80987102 1.88856106 0 0 Z " fill="#BB385A" transform="translate(221,180)"/>
<path d="M0 0 C0.33 0 0.66 0 1 0 C1.22567411 3.77000648 1.42755846 7.54091787 1.625 11.3125 C1.68945312 12.38435547 1.75390625 13.45621094 1.8203125 14.56054688 C1.871875 15.58857422 1.9234375 16.61660156 1.9765625 17.67578125 C2.02893066 18.62364502 2.08129883 19.57150879 2.13525391 20.5480957 C2 23 2 23 0 26 C-0.66 26 -1.32 26 -2 26 C-1.84152588 25.44731445 -1.68305176 24.89462891 -1.51977539 24.32519531 C-0.95067733 21.77935695 -0.7896572 19.40300555 -0.68359375 16.796875 C-0.64169922 15.8171875 -0.59980469 14.8375 -0.55664062 13.828125 C-0.51732422 12.81234375 -0.47800781 11.7965625 -0.4375 10.75 C-0.39431641 9.71875 -0.35113281 8.6875 -0.30664062 7.625 C-0.20074318 5.0834613 -0.09866557 2.54182804 0 0 Z " fill="#C03B5D" transform="translate(172,159)"/>
<path d="M0 0 C4.05281712 1.22527029 7.44360764 2.69880494 11 5 C10.34 5.66 9.68 6.32 9 7 C6.375 6.625 6.375 6.625 4 6 C4 5.34 4 4.68 4 4 C2.68 4.33 1.36 4.66 0 5 C-0.33 4.34 -0.66 3.68 -1 3 C-0.67 2.01 -0.34 1.02 0 0 Z " fill="#B76897" transform="translate(241,63)"/>
<path d="M0 0 C1.32 0.33 2.64 0.66 4 1 C3.01 1.33 2.02 1.66 1 2 C-0.05086948 4.76366247 -0.11860688 7.39503741 -0.09765625 10.328125 C-0.09443359 11.12734375 -0.09121094 11.9265625 -0.08789062 12.75 C-0.07951172 13.575 -0.07113281 14.4 -0.0625 15.25 C-0.05798828 16.09046875 -0.05347656 16.9309375 -0.04882812 17.796875 C-0.03707961 19.86461401 -0.01914522 21.93231624 0 24 C-2.0331579 20.95026315 -2.2548508 20.31043132 -2.265625 16.875 C-2.26820312 16.08609375 -2.27078125 15.2971875 -2.2734375 14.484375 C-2.26570313 13.66453125 -2.25796875 12.8446875 -2.25 12 C-2.25773437 11.18015625 -2.26546875 10.3603125 -2.2734375 9.515625 C-2.27085938 8.72671875 -2.26828125 7.9378125 -2.265625 7.125 C-2.26336914 6.40570313 -2.26111328 5.68640625 -2.25878906 4.9453125 C-2 3 -2 3 0 0 Z " fill="#BC385D" transform="translate(76,150)"/>
<path d="M0 0 C2.49505962 2.49505962 2.35948376 3.67328888 2.625 7.125 C2.69976562 8.03507812 2.77453125 8.94515625 2.8515625 9.8828125 C2.90054688 10.58148438 2.94953125 11.28015625 3 12 C0.17068148 12.80928705 -2.31084077 13.11148599 -5.25 13.0625 C-7.10625 13.0315625 -7.10625 13.0315625 -9 13 C-9 12.67 -9 12.34 -9 12 C-4.545 11.505 -4.545 11.505 0 11 C0 7.37 0 3.74 0 0 Z " fill="#BE3E66" transform="translate(143,258)"/>
<path d="M0 0 C1.258125 -0.020625 2.51625 -0.04125 3.8125 -0.0625 C4.52019531 -0.07410156 5.22789062 -0.08570313 5.95703125 -0.09765625 C8 0 8 0 11 1 C11 1.66 11 2.32 11 3 C7.7 3 4.4 3 1 3 C0.34 4.65 -0.32 6.3 -1 8 C-1.66 7.67 -2.32 7.34 -3 7 C-3 5.68 -3 4.36 -3 3 C-2.34 3 -1.68 3 -1 3 C-0.67 2.01 -0.34 1.02 0 0 Z " fill="#E26999" transform="translate(259,182)"/>
<path d="M0 0 C1.73546076 2.60319113 2.65175233 4.52267237 3.625 7.4375 C3.88539063 8.19933594 4.14578125 8.96117187 4.4140625 9.74609375 C5 12 5 12 5 16 C4.34 16 3.68 16 3 16 C0.54970669 10.28264895 -0.33266291 6.20970773 0 0 Z " fill="#A25C86" transform="translate(316,144)"/>
<path d="M0 0 C2 1 2 1 2.8515625 3.06640625 C3.10679687 3.89011719 3.36203125 4.71382813 3.625 5.5625 C3.88539063 6.38878906 4.14578125 7.21507812 4.4140625 8.06640625 C4.60742188 8.70449219 4.80078125 9.34257812 5 10 C-0.75 14 -0.75 14 -3 14 C-3 13.01 -3 12.02 -3 11 C-1.35 10.67 0.3 10.34 2 10 C1.34 6.7 0.68 3.4 0 0 Z " fill="#BB385B" transform="translate(253,256)"/>
<path d="M0 0 C0.99 0 1.98 0 3 0 C3.33575056 2.43718935 3.66869285 4.87470615 4 7.3125 C4.09539062 8.00279297 4.19078125 8.69308594 4.2890625 9.40429688 C4.68027442 12.29647073 5 15.07764977 5 18 C5.66 18 6.32 18 7 18 C6.67 18.66 6.34 19.32 6 20 C3 18 3 18 2.3046875 14.62890625 C2.14789836 13.27493901 2.00518992 11.91928322 1.875 10.5625 C1.32336678 5.20859238 1.32336678 5.20859238 0 0 Z " fill="#BD3758" transform="translate(193,222)"/>
<path d="M0 0 C0.33 0 0.66 0 1 0 C1.25 2.3125 1.25 2.3125 1 5 C-1.39081611 7.77334669 -2.899597 7.98943126 -6.5625 8.375 C-10 8 -10 8 -13 5 C-9.7 5.33 -6.4 5.66 -3 6 C-3 5.34 -3 4.68 -3 4 C-2.34 4 -1.68 4 -1 4 C-0.67 2.68 -0.34 1.36 0 0 Z " fill="#E0669A" transform="translate(271,185)"/>
<path d="M0 0 C2.44758259 3.67137389 2.40610631 6.6767257 2.5625 10.9375 C2.74513459 17.04543899 2.74513459 17.04543899 4 23 C1 21 1 21 0.56762695 18.84521484 C0.54144287 17.97590332 0.51525879 17.1065918 0.48828125 16.2109375 C0.45283203 15.26992187 0.41738281 14.32890625 0.38085938 13.359375 C0.35830078 12.37453125 0.33574219 11.3896875 0.3125 10.375 C0.27833984 9.38242188 0.24417969 8.38984375 0.20898438 7.3671875 C0.12634343 4.91157094 0.05724873 2.45631859 0 0 Z " fill="#C13F69" transform="translate(243,173)"/>
<path d="M0 0 C-3.01490557 2.00993705 -5.2149927 2.72623341 -8.6875 3.625 C-10.17830078 4.01558594 -10.17830078 4.01558594 -11.69921875 4.4140625 C-12.45847656 4.60742188 -13.21773437 4.80078125 -14 5 C-12.203125 1.09375 -12.203125 1.09375 -10.375 0.25 C-6.90262273 -0.1155134 -3.49135702 -0.05818928 0 0 Z " fill="#B66796" transform="translate(229,339)"/>
<path d="M0 0 C0.33 0 0.66 0 1 0 C1.02686553 1.97909398 1.04633375 3.95828971 1.0625 5.9375 C1.07410156 7.03964844 1.08570313 8.14179688 1.09765625 9.27734375 C1 12 1 12 0 13 C-1.51928038 13.07179964 -3.04167482 13.08392007 -4.5625 13.0625 C-5.38878906 13.05347656 -6.21507812 13.04445312 -7.06640625 13.03515625 C-7.70449219 13.02355469 -8.34257812 13.01195312 -9 13 C-9 12.67 -9 12.34 -9 12 C-7.02 12 -5.04 12 -3 12 C-2.01 8.04 -1.02 4.08 0 0 Z " fill="#C14167" transform="translate(212,210)"/>
<path d="M0 0 C0.66 0.66 1.32 1.32 2 2 C1.65561395 6.13263259 -0.06429969 9.38108204 -2 13 C-3.32 12.67 -4.64 12.34 -6 12 C-5.34 12 -4.68 12 -4 12 C-3.79503906 11.30132812 -3.59007812 10.60265625 -3.37890625 9.8828125 C-3.10949219 8.97273437 -2.84007812 8.06265625 -2.5625 7.125 C-2.29566406 6.22007812 -2.02882812 5.31515625 -1.75390625 4.3828125 C-1 2 -1 2 0 0 Z " fill="#C03A5C" transform="translate(217,154)"/>
<path d="M0 0 C0.99 0.33 1.98 0.66 3 1 C-0.63 4.3 -4.26 7.6 -8 11 C-8.33 10.01 -8.66 9.02 -9 8 C-6.03 5.36 -3.06 2.72 0 0 Z " fill="#AD648F" transform="translate(279,305)"/>
<path d="M0 0 C0.99 0 1.98 0 3 0 C3.66 1.65 4.32 3.3 5 5 C4.01 5.99 3.02 6.98 2 8 C1.34 7.67 0.68 7.34 0 7 C-0.33 7.99 -0.66 8.98 -1 10 C-1.99 9.67 -2.98 9.34 -4 9 C-2.36587557 7.29159719 -1.13093906 6.06546953 1 5 C0.67 3.35 0.34 1.7 0 0 Z " fill="#E26AA3" transform="translate(256,261)"/>
<path d="M0 0 C0.33 0 0.66 0 1 0 C2.55426378 5.9779376 2.55426378 5.9779376 1.0234375 8.80078125 C-0.3125 10.4375 -0.3125 10.4375 -3 13 C-3.66 13 -4.32 13 -5 13 C-3.58192622 8.52761347 -1.88695626 4.28853694 0 0 Z " fill="#BE385A" transform="translate(169,210)"/>
<path d="M0 0 C4.95 0 9.9 0 15 0 C15 0.33 15 0.66 15 1 C11.04 1 7.08 1 3 1 C3 2.98 3 4.96 3 7 C1.68 5.68 0.36 4.36 -1 3 C-0.67 2.01 -0.34 1.02 0 0 Z " fill="#C54268" transform="translate(116,262)"/>
<path d="M0 0 C1.32 0.33 2.64 0.66 4 1 C3.01 1.495 3.01 1.495 2 2 C2 6.62 2 11.24 2 16 C2.99 16.33 3.98 16.66 5 17 C3.68 17 2.36 17 1 17 C0.67 11.39 0.34 5.78 0 0 Z " fill="#E06393" transform="translate(232,224)"/>
<path d="M0 0 C1 3 1 3 0.0625 5.1875 C-0.4634375 6.0846875 -0.4634375 6.0846875 -1 7 C-3.62187494 5.95125002 -4.79371361 5.35068687 -6.25 2.875 C-6.4975 2.25625 -6.745 1.6375 -7 1 C-3.535 0.505 -3.535 0.505 0 0 Z " fill="#DD6DA7" transform="translate(139,198)"/>
<path d="M0 0 C0.66 0 1.32 0 2 0 C2.33 0.99 2.66 1.98 3 3 C4.98 2.67 6.96 2.34 9 2 C8.01 4.31 7.02 6.62 6 9 C3 8 3 8 2.05078125 6.15234375 C1.80714844 5.42144531 1.56351563 4.69054687 1.3125 3.9375 C1.06113281 3.20402344 0.80976563 2.47054687 0.55078125 1.71484375 C0.36902344 1.14894531 0.18726563 0.58304688 0 0 Z " fill="#E46BA5" transform="translate(207,157)"/>
<path d="M0 0 C4.99213851 0.46801299 9.12963993 2.91715737 13 6 C13 6.66 13 7.32 13 8 C8.27626146 6.37621488 4.05818166 3.89006982 0 1 C0 0.67 0 0.34 0 0 Z " fill="#AC608C" transform="translate(92,323)"/>
<path d="M0 0 C0.99 0.33 1.98 0.66 3 1 C-0.3 4.63 -3.6 8.26 -7 12 C-7.33 11.01 -7.66 10.02 -8 9 C-7.34 9 -6.68 9 -6 9 C-6 8.34 -6 7.68 -6 7 C-5.34 7 -4.68 7 -4 7 C-4 6.34 -4 5.68 -4 5 C-3.34 5 -2.68 5 -2 5 C-1.855625 4.360625 -1.71125 3.72125 -1.5625 3.0625 C-1 1 -1 1 0 0 Z " fill="#A16187" transform="translate(290,293)"/>
<path d="M0 0 C-1.15585285 3.91211733 -2.35534962 6.8745041 -5 10 C-5.66 9.67 -6.32 9.34 -7 9 C-4.4 0 -4.4 0 0 0 Z " fill="#B66695" transform="translate(314,258)"/>
<path d="M0 0 C0.33 0 0.66 0 1 0 C1 1.65 1 3.3 1 5 C2.32 5.66 3.64 6.32 5 7 C4.67 9.31 4.34 11.62 4 14 C2.24900461 11.37350692 1.30690675 9.38191413 0.3125 6.4375 C0.04050781 5.65246094 -0.23148438 4.86742187 -0.51171875 4.05859375 C-1 2 -1 2 0 0 Z " fill="#E270A6" transform="translate(178,244)"/>
<path d="M0 0 C0.33 0 0.66 0 1 0 C1.36504603 1.58086048 1.71660506 3.16483907 2.0625 4.75 C2.25972656 5.63171875 2.45695312 6.5134375 2.66015625 7.421875 C2.99825872 9.98679028 2.81158635 11.57091639 2 14 C1.34 12.35 0.68 10.7 0 9 C-0.66 9.99 -1.32 10.98 -2 12 C-1.85904936 10.3745692 -1.71207913 8.74965949 -1.5625 7.125 C-1.48128906 6.22007812 -1.40007812 5.31515625 -1.31640625 4.3828125 C-1 2 -1 2 0 0 Z " fill="#E0679A" transform="translate(123,230)"/>
<path d="M0 0 C1.485 0.99 1.485 0.99 3 2 C5.33199388 2.07905064 7.66832622 2.08798769 10 2 C10.33 1.34 10.66 0.68 11 0 C11 1.32 11 2.64 11 4 C5.70769231 6.21538462 5.70769231 6.21538462 2.125 5.125 C1.42375 4.75375 0.7225 4.3825 0 4 C0 2.68 0 1.36 0 0 Z " fill="#E16A9E" transform="translate(209,192)"/>
<path d="M0 0 C0.97710937 -0.01417969 1.95421875 -0.02835938 2.9609375 -0.04296875 C5.625 0.1875 5.625 0.1875 8.625 2.1875 C2.19 2.6825 2.19 2.6825 -4.375 3.1875 C-4.705 5.8275 -5.035 8.4675 -5.375 11.1875 C-5.705 11.1875 -6.035 11.1875 -6.375 11.1875 C-6.40188151 9.54175434 -6.42134123 7.89588587 -6.4375 6.25 C-6.44910156 5.33347656 -6.46070312 4.41695312 -6.47265625 3.47265625 C-6.28652783 -0.88274877 -3.78011774 0.02480392 0 0 Z " fill="#E46DA2" transform="translate(109.375,134.8125)"/>
<path d="M0 0 C7.48291572 6.15034169 7.48291572 6.15034169 10 10 C6.10913233 9.42357516 3.79382697 7.71831813 1 5 C0.1875 2.25 0.1875 2.25 0 0 Z " fill="#AC628E" transform="translate(275,85)"/>
<path d="M0 0 C0.66 0 1.32 0 2 0 C5 3.46153846 5 3.46153846 5 6 C4.01 6 3.02 6 2 6 C1.67 6.66 1.34 7.32 1 8 C1.66 8.33 2.32 8.66 3 9 C2.34 9.99 1.68 10.98 1 12 C0.03929566 9.11788698 -0.10581883 7.30149956 -0.0625 4.3125 C-0.05347656 3.50425781 -0.04445313 2.69601563 -0.03515625 1.86328125 C-0.02355469 1.24839844 -0.01195313 0.63351563 0 0 Z " fill="#E770AC" transform="translate(122,183)"/>
<path d="M0 0 C2.35716404 2.15454249 3.78966144 4.19719874 5.1875 7.0625 C5.53167969 7.75472656 5.87585938 8.44695312 6.23046875 9.16015625 C7 11 7 11 7 13 C6.34 13 5.68 13 5 13 C5 12.01 5 11.02 5 10 C4.34 10 3.68 10 3 10 C0.96564469 6.27034861 0 4.33094958 0 0 Z " fill="#A5638B" transform="translate(305,122)"/>
<path d="M0 0 C3.80625982 1.49531636 5.77940501 3.58980056 8 7 C8.25 9.8125 8.25 9.8125 8 12 C7.67 10.68 7.34 9.36 7 8 C6.34 8 5.68 8 5 8 C4.67 6.68 4.34 5.36 4 4 C2.68 4.33 1.36 4.66 0 5 C0 3.35 0 1.7 0 0 Z " fill="#E46A9D" transform="translate(119,152)"/>
<path d="M0 0 C0.33 0 0.66 0 1 0 C0.58997722 10.55808656 0.58997722 10.55808656 -4 15 C-3.43179252 9.54520815 -2.05362055 5.08940744 0 0 Z " fill="#A36089" transform="translate(36,142)"/>
<path d="M0 0 C2.64 0 5.28 0 8 0 C9.28317892 3.84953676 9.06643637 6.94738135 9 11 C5.99382731 7.99382731 6.40414684 5.17618402 6 1 C4.02 1 2.04 1 0 1 C0 0.67 0 0.34 0 0 Z " fill="#BB375A" transform="translate(225,137)"/>
<path d="M0 0 C0.33 0 0.66 0 1 0 C1.33 5.28 1.66 10.56 2 16 C0.68 16.33 -0.64 16.66 -2 17 C-2 16.34 -2 15.68 -2 15 C-1.34 15 -0.68 15 0 15 C0 10.05 0 5.1 0 0 Z " fill="#BD3B60" transform="translate(234,254)"/>
<path d="M0 0 C0.91007812 0.00902344 1.82015625 0.01804688 2.7578125 0.02734375 C3.45648438 0.03894531 4.15515625 0.05054688 4.875 0.0625 C5.205 1.0525 5.535 2.0425 5.875 3.0625 C1.585 3.0625 -2.705 3.0625 -7.125 3.0625 C-7.125 2.4025 -7.125 1.7425 -7.125 1.0625 C-4.60024538 -0.19987731 -2.81299534 -0.03606404 0 0 Z " fill="#BB3759" transform="translate(85.125,251.9375)"/>
<path d="M0 0 C0.66 0 1.32 0 2 0 C1.67 0.78375 1.34 1.5675 1 2.375 C-0.27410171 6.99361869 -0.16923936 11.24249356 0 16 C-0.66 16 -1.32 16 -2 16 C-2.05402274 13.89611431 -2.09280256 11.79183286 -2.125 9.6875 C-2.14820313 8.51574219 -2.17140625 7.34398437 -2.1953125 6.13671875 C-2 3 -2 3 0 0 Z " fill="#BD375B" transform="translate(174,224)"/>
<path d="M0 0 C0.66 0 1.32 0 2 0 C2 1.65 2 3.3 2 5 C3.32 4.01 4.64 3.02 6 2 C6.33 3.32 6.66 4.64 7 6 C5.0085944 6.38133299 3.00720923 6.71325582 1 7 C0 6 0 6 -0.0625 2.9375 C-0.041875 1.968125 -0.02125 0.99875 0 0 Z " fill="#E56BA2" transform="translate(119,162)"/>
<path d="M0 0 C1.98 0 3.96 0 6 0 C6.33 0.99 6.66 1.98 7 3 C8.32 3 9.64 3 11 3 C11.33 4.65 11.66 6.3 12 8 C8 5.33333333 4 2.66666667 0 0 Z " fill="#BE3D61" transform="translate(253,148)"/>
<path d="M0 0 C4.45355865 0.28732636 8.15100832 0.5943802 12 3 C9.69 3.33 7.38 3.66 5 4 C5 3.34 5 2.68 5 2 C2.69 2 0.38 2 -2 2 C-1.34 1.34 -0.68 0.68 0 0 Z " fill="#A55D8A" transform="translate(206,51)"/>
<path d="M0 0 C0.99 0.33 1.98 0.66 3 1 C3 1.66 3 2.32 3 3 C3.99 3.33 4.98 3.66 6 4 C6 4.66 6 5.32 6 6 C4.125 6.625 4.125 6.625 2 7 C0 5 0 5 -0.125 2.375 C-0.08375 1.59125 -0.0425 0.8075 0 0 Z " fill="#E275B9" transform="translate(234,230)"/>
<path d="M0 0 C0.66 0.99 1.32 1.98 2 3 C-1.32307692 8.78461538 -1.32307692 8.78461538 -4.75 9.875 C-5.4925 9.91625 -6.235 9.9575 -7 10 C-6.21625 9.278125 -5.4325 8.55625 -4.625 7.8125 C-2.15587562 5.16700959 -1.06739722 3.39626389 0 0 Z " fill="#E36CA3" transform="translate(184,186)"/>
<path d="M0 0 C2.00293347 3.00440021 2.49271626 4.70993945 3.125 8.1875 C3.37636719 9.53908203 3.37636719 9.53908203 3.6328125 10.91796875 C3.75398437 11.60503906 3.87515625 12.29210937 4 13 C3.34 13 2.68 13 2 13 C-0.24828052 8.50343896 -0.16682272 4.92127034 0 0 Z " fill="#BE3A60" transform="translate(136,234)"/>
<path d="M0 0 C3.2645028 3.2645028 3.93236055 7.41047299 4.125 11.9375 C4.08375 12.618125 4.0425 13.29875 4 14 C1.68540132 12.18182999 1.04622813 11.24384457 0.48828125 8.30078125 C0.43027344 7.31464844 0.37226563 6.32851562 0.3125 5.3125 C0.24675781 4.31863281 0.18101562 3.32476562 0.11328125 2.30078125 C0.07589844 1.54152344 0.03851563 0.78226563 0 0 Z " fill="#B93559" transform="translate(148,176)"/>
<path d="M0 0 C-0.61277612 2.96175123 -1.25372522 4.38058783 -3 7 C-3.99 7 -4.98 7 -6 7 C-5.37162381 3.35541809 -4.14650034 0 0 0 Z " fill="#BE699A" transform="translate(76,87)"/>
<path d="M0 0 C1.51754003 2.41021064 2.02316906 3.68335622 1.8125 6.5625 C0.95027053 9.14918841 0.07804617 10.28335317 -2 12 C-1 3.42857143 -1 3.42857143 0 0 Z " fill="#E26CA5" transform="translate(285,228)"/>
<path d="M0 0 C1.4540625 0.0309375 1.4540625 0.0309375 2.9375 0.0625 C3.2675 0.7225 3.5975 1.3825 3.9375 2.0625 C3.03 2.145 2.1225 2.2275 1.1875 2.3125 C-2.46327839 3.15498732 -3.69634583 4.24131618 -6.0625 7.0625 C-3.83347902 0.07823427 -3.83347902 0.07823427 0 0 Z " fill="#BF3D68" transform="translate(283.0625,208.9375)"/>
<path d="M0 0 C3.53372712 1.96318174 6.24479785 4.04070881 9 7 C5 7 5 7 2 5 C2 4.01 2 3.02 2 2 C1.34 2 0.68 2 0 2 C0 1.34 0 0.68 0 0 Z " fill="#A6638D" transform="translate(266,78)"/>
<path d="M0 0 C-1.15173355 2.46800047 -2.04783565 4.04783565 -4 6 C-6.625 6.125 -6.625 6.125 -9 6 C-3.2 0 -3.2 0 0 0 Z " fill="#AC608D" transform="translate(95,72)"/>
<path d="M0 0 C1.4391134 0.28359887 2.87625518 0.57721399 4.3125 0.875 C5.11300781 1.03742187 5.91351563 1.19984375 6.73828125 1.3671875 C9 2 9 2 12 4 C8.04 3.67 4.08 3.34 0 3 C0 2.01 0 1.02 0 0 Z " fill="#9E5F87" transform="translate(218,54)"/>
<path d="M0 0 C1.32 0.33 2.64 0.66 4 1 C4.33 2.98 4.66 4.96 5 7 C4.01 7.495 4.01 7.495 3 8 C0 2.25 0 2.25 0 0 Z " fill="#B86595" transform="translate(40,262)"/>
<path d="M0 0 C3.42931954 3.7559214 4.56429083 8.23466745 6 13 C5.34 13 4.68 13 4 13 C3.13633178 11.21289414 2.28431406 9.4201535 1.4375 7.625 C0.96183594 6.62726563 0.48617187 5.62953125 -0.00390625 4.6015625 C-0.49697266 3.31378906 -0.49697266 3.31378906 -1 2 C-0.67 1.34 -0.34 0.68 0 0 Z " fill="#BC385C" transform="translate(242,258)"/>
<path d="M0 0 C0.99 0.33 1.98 0.66 3 1 C-1.455 3.97 -1.455 3.97 -6 7 C-6 6.01 -6 5.02 -6 4 C-3.1875 1.75 -3.1875 1.75 0 0 Z " fill="#A35F8A" transform="translate(261,320)"/>
<path d="M0 0 C0.66 0 1.32 0 2 0 C0.74194623 4.50802601 -0.90407165 7.4912812 -4 11 C-3.125 5.25 -3.125 5.25 -2 3 C-1.34 3 -0.68 3 0 3 C0 2.01 0 1.02 0 0 Z " fill="#A15D8A" transform="translate(307,268)"/>
<path d="M0 0 C0.66 0.66 1.32 1.32 2 2 C1.67028521 5.29714793 1.3773161 6.6226839 -1 9 C-1.99 8.67 -2.98 8.34 -4 8 C-3.34 8 -2.68 8 -2 8 C-1.34 5.36 -0.68 2.72 0 0 Z " fill="#BF3B5F" transform="translate(276,216)"/>
<path d="M0 0 C0.391875 0.639375 0.78375 1.27875 1.1875 1.9375 C3.38472296 4.43778819 4.75791433 4.64950425 8 5 C8 5.99 8 6.98 8 8 C4.65902615 7.40339753 2.45699871 6.36924875 0 4 C0 2.68 0 1.36 0 0 Z " fill="#BD3A5E" transform="translate(247,193)"/>
<path d="M0 0 C0.33 0.99 0.66 1.98 1 3 C-0.75 5.6875 -0.75 5.6875 -3 8 C-3.99 8 -4.98 8 -6 8 C-5.67 6.68 -5.34 5.36 -5 4 C-3.68 4 -2.36 4 -1 4 C-0.67 2.68 -0.34 1.36 0 0 Z " fill="#C36CA0" transform="translate(53,114)"/>
<path d="M0 0 C3.465 1.98 3.465 1.98 7 4 C6.67 4.66 6.34 5.32 6 6 C3.13275314 5.42655063 2.1385485 5.1385485 0 3 C0 2.01 0 1.02 0 0 Z " fill="#AF6591" transform="translate(259,73)"/>
<path d="M0 0 C0.66 0.99 1.32 1.98 2 3 C-0.52788007 5.79872437 -2.20411134 7.45773019 -6 8 C-6 7.01 -6 6.02 -6 5 C-4.02 4.67 -2.04 4.34 0 4 C0 2.68 0 1.36 0 0 Z " fill="#BD395A" transform="translate(100,264)"/>
<path d="M0 0 C2.475 0.495 2.475 0.495 5 1 C5 2.32 5 3.64 5 5 C3.35 5 1.7 5 0 5 C0 3.35 0 1.7 0 0 Z " fill="#E572AD" transform="translate(234,235)"/>
<path d="M0 0 C1.32 0 2.64 0 4 0 C3.690625 0.598125 3.38125 1.19625 3.0625 1.8125 C1.89790296 4.08956772 1.89790296 4.08956772 1 7 C1.66 7.33 2.32 7.66 3 8 C2.01 8 1.02 8 0 8 C-0.38063221 5.6739143 -0.71269945 3.33944736 -1 1 C-0.67 0.67 -0.34 0.34 0 0 Z " fill="#C23F65" transform="translate(275,168)"/>
<path d="M0 0 C2.86697492 1.28519565 4.97607712 2.57129254 7 5 C7 5.66 7 6.32 7 7 C4.13302508 5.71480435 2.02392288 4.42870746 0 2 C0 1.34 0 0.68 0 0 Z " fill="#B46796" transform="translate(77,310)"/>
<path d="M0 0 C0.99 0 1.98 0 3 0 C5.125 4.625 5.125 4.625 4 8 C3.7525 7.195625 3.505 6.39125 3.25 5.5625 C2.27761141 2.828919 2.27761141 2.828919 -0.125 2.1875 C-0.74375 2.125625 -1.3625 2.06375 -2 2 C-1.34 1.34 -0.68 0.68 0 0 Z " fill="#BD3859" transform="translate(236,251)"/>
<path d="M0 0 C3.057952 1.73559438 5.63379989 3.38472619 8 6 C4.62537285 5.45276317 2.91765 4.9451 0 3 C0 2.01 0 1.02 0 0 Z " fill="#BD395B" transform="translate(264,218)"/>
<path d="M0 0 C2.89932357 2.39509338 3.50168276 4.31245243 4 8 C3.67 7.34 3.34 6.68 3 6 C2.34 6 1.68 6 1 6 C0.67 6.66 0.34 7.32 0 8 C0 5.36 0 2.72 0 0 Z " fill="#DF5F8D" transform="translate(203,178)"/>
<path d="M0 0 C0.33 0.66 0.66 1.32 1 2 C0.01 3.485 0.01 3.485 -1 5 C-1.66 5 -2.32 5 -3 5 C-3.33 5.99 -3.66 6.98 -4 8 C-4.66 7.01 -5.32 6.02 -6 5 C-4.02 3.35 -2.04 1.7 0 0 Z " fill="#AB618D" transform="translate(81,81)"/>
<path d="M0 0 C2.4375 0.75 2.4375 0.75 5 2 C5.6875 4.0625 5.6875 4.0625 6 6 C6.66 6.33 7.32 6.66 8 7 C7.01 7 6.02 7 5 7 C3.61328125 5.46875 3.61328125 5.46875 2.3125 3.5 C1.87550781 2.8503125 1.43851563 2.200625 0.98828125 1.53125 C0.49908203 0.77328125 0.49908203 0.77328125 0 0 Z " fill="#A6638B" transform="translate(58,292)"/>
<path d="M0 0 C0 0.33 0 0.66 0 1 C-3.3 1 -6.6 1 -10 1 C-10.33 0.34 -10.66 -0.32 -11 -1 C-6.74938644 -2.41687119 -4.28148375 -1.19320039 0 0 Z " fill="#BF3C64" transform="translate(117,270)"/>
<path d="M0 0 C2.50298434 2.93828597 3.46930939 5.17902761 4 9 C3.01 8.67 2.02 8.34 1 8 C-0.35439668 5.29120665 -0.06501451 2.99066732 0 0 Z " fill="#9C5A82" transform="translate(312,135)"/>
<path d="M0 0 C3.3 0 6.6 0 10 0 C10 0.33 10 0.66 10 1 C8.865625 1.12375 7.73125 1.2475 6.5625 1.375 C4.7990625 1.684375 4.7990625 1.684375 3 2 C2.67 2.66 2.34 3.32 2 4 C1.34 4 0.68 4 0 4 C0 2.68 0 1.36 0 0 Z " fill="#E671A5" transform="translate(119,263)"/>
<path d="M0 0 C0.66 0 1.32 0 2 0 C1.34 3.3 0.68 6.6 0 10 C-0.66 9.01 -1.32 8.02 -2 7 C-1.125 3.3125 -1.125 3.3125 0 0 Z " fill="#B83556" transform="translate(280,240)"/>
</svg>
